<?xml version="1.0" encoding="utf-8"?>
<!-- Generator: Adobe Illustrator 19.0.0, SVG Export Plug-In . SVG Version: 6.00 Build 0)  -->
<svg version="1.1" id="Layer_1" xmlns="http://www.w3.org/2000/svg" xmlns:xlink="http://www.w3.org/1999/xlink" x="0px" y="0px"
	 viewBox="0 0 442 412" style="enable-background:new 0 0 442 412;" xml:space="preserve">
<style type="text/css">
	.st0{fill:#C82128;}
	.st1{fill:#F3D80E;}
	.st2{stroke:#FFFFFF;stroke-miterlimit:10;}
	.st3{fill:#FFFFFF;}
	.st4{fill:#FFFFFF;stroke:#000000;stroke-miterlimit:10;}
</style>
<path id="XMLID_167_" class="st0" d="M344,111.7c44.1-0.7,80.3,11.3,80,54c-0.3,0-0.7,0-1,0c0,0.3,0,0.7,0,1c-0.7-0.3-1.3-0.7-2-1
	c-6-12.9-14.6-22.5-28-28c-2,0-4,0-6,0c-20.3-6.1-52.8-3-78-3c-9-0.3-18-0.7-27-1c-28.5-8-39.8-24.7-48-53c-1.8-6.1-0.3-10.3-2-17
	c-2.4-9.8-5.9-36.8-2-48c0.3,0,0.7,0,1,0c0,0.3,0,0.7,0,1c4.2,6,4.4,29.1,7,38c12.1,41,20.2,57.3,71,57c0-0.7,0-1.3,0-2
	c-8.4-5.1-15.5-22.7-9-36c2.5-5.1,9.5-11.9,15-14c1.3,0,2.7,0,4,0c2.3-0.8,8-3.6,13-2c12.8,4.2,28.7,18.4,22,38
	C351.8,102.1,345.4,105.3,344,111.7z"/>
<path id="XMLID_165_" class="st1" d="M210,16.7c2.1,0.3,1.9,0.1,3,1c1.4,1.9,1.1,6.6,1,10c-2,2.9-0.9,10.4-1,15
	c-0.7,8.3-1.3,16.7-2,25c-6,24.1-11.7,45.4-29,58c-1,0-2,0-3,0c-1.4,0.8-3.4,3.3-5,4c-1.3,0-2.7,0-4,0c-28.9,12.7-83.2-1.9-116,7
	c-15.2,4.2-28.7,15-33,30c-0.3,0-0.7,0-1,0c0-0.3,0-0.7,0-1c-5.6-6,2.4-21.2,5-26c12.3-22.4,35.6-29.5,71-29c-1.2-7.2-7.1-11.2-9-18
	c-3.6-12.9,7.7-29.7,15-32c8.6-7.1,28.8-2,35,4c2.8,2.7,6.9,13.6,8,18c3.3,13-7.5,18.9-9,28c15.8,0,24.6-0.9,35-5c2.6-1,5.1-0.4,7-2
	C197,87.2,208,49.9,210,16.7z"/>
<path id="XMLID_163_" class="st2" d="M89,165.7c4.3,0,6.2,0.8,9,2c0.7,1.3,2.6,2.8,3,4c1.8,5.1-2.4,11.5,2,14c2.7-3.5,7.6-4.1,14-4
	c3.6,3.5,7.4,3,8,10c3.2,4.7,0.4,23.1,3,29c-2,0-4,0-6,0c-2.1-2.1-3.8-1.6-5-5c-3.4-4.4-1.9-17.9-3-24c-2-0.7-4.7-1-8-1
	c-1.5,2.5-4.1,4.9-5,8c-1.6,5.3-0.2,13.6-1,18c-3.6,2.1-5,3.8-11,4c0-0.7,0-1.3,0-2C93.3,212.9,91.1,176.1,89,165.7z"/>
<path id="XMLID_161_" class="st2" d="M314,165.7c2.7,0.3,5.3,0.7,8,1c3.9,6.1,4.2,8.2,4,19c0.7,0,1.3,0,2,0c2.7-3.5,7.6-4.1,14-4
	c2.6,2.3,5.1,2.9,7,6c4.9,5.6,1.4,23,0,29c-10.6,6.3-16.6,5.2-29,2c-1-2.2-3.3-5-4-7c0-3.7,0-7.3,0-11
	C316,189.2,317.3,174,314,165.7z"/>
<path id="XMLID_159_" class="st2" d="M64,181.7c5.9-0.1,8.8,1,13,2c1,1.8,1.3,1.6,2,4c-4,0-8,0-12,0c-1.7,2.3-3.3,4.7-5,7
	c-0.4,7.8-0.7,15.1,5,17c5.3,4.4,13-0.1,19-1c0,0.7,0,1.3,0,2c-8.5,6.4-5.5,9.2-22,9c-1.7-1.5-4.5-2.4-7-3c-5.1-8-10.5-20.6-3-31
	C56.2,184.6,61,184.1,64,181.7z"/>
<path id="XMLID_157_" class="st2" d="M146,181.7c8.5-0.4,16,0.9,18,7c4.9,4.9,3,19.3,2,27c-2.4,1.5-2.9,3-6,4c-5,4.4-17.6,1.3-23,0
	c-4.4-6.7-4.8-5.9-4-16c3.8-2.3,6.9-5.5,12-7c4.9-1.4,9.7,2,12-2c-0.8-1-1.5-2.7-2-4c-8.1-3.8-9.7-2-18,0c0-1,0-2,0-3
	c0.9-1.1,0.4-0.2,1-2c2.7-0.9,1.7-1.3,5-2C143.8,182.9,145.2,182.4,146,181.7z"/>
<path id="XMLID_155_" class="st2" d="M186,181.7c9.7-0.4,18.8,1,21,8c4.9,5.3-0.3,17.8,2,26c0.3,1.2,1.6,3.1,2,5c-2,0-4,0-6,0
	c-1.3-1.3-1.8-1.4-4-2c-1.7-6.1-2-15.2-2-24c-0.8-1-1.5-2.7-2-4c-2.7-1.2-3.8-1.9-8-2c-1.1,1.2-2,1.6-3,3c-3.5,4.1-2.1,16.6-2,24
	c-1.9,1.3-1.6,2-4,3c-1.9,1.9-3.9,2-8,2c0-0.7,0-1.3,0-2c4.6-5.7-1-17.6,2-27c0.4-1.1,1.5-2,2-4C178.7,186.2,183.7,183.9,186,181.7z
	"/>
<path id="XMLID_153_" class="st2" d="M229,181.7c8-0.2,12.9,0.8,18,3c1.7,2.3,3.3,4.7,5,7c2.7,7.8-0.6,34.1-2,40
	c-6.9,4.6-25.9,11.7-27-4c0.3,0,0.7,0,1,0c2.9,3.8,10,3.1,15,2c2-3.3,3-4,3-10c-0.7,0-1.3,0-2,0c-5.1,5.4-18.3,1.1-20-4
	c-4.9-4.7-3-18.5-2-26c2.4-1.5,1.7-2.7,3-4C223.1,183.7,226.9,183.7,229,181.7z"/>
<path id="XMLID_151_" class="st2" d="M272,181.7c15.4-0.3,14.9,3.8,22,11c0,3.3,0,6.7,0,10c-1,0.3-2,0.7-3,1c-4.3,3-17.1,0.3-22,2
	c1.8,4.2,3.1,6.7,9,7c3.7,2.7,9.6-1.3,14-2c0,0.7,0,1.3,0,2c-6.2,6.2-7.7,9.2-21,9c-3.3-3.2-7.4-2.9-9-8c-5.3-5.1-2.6-18.4-1-25
	c2-1.2,3.2-4,5-5C268.3,182.4,270.2,183.2,272,181.7z"/>
<path id="XMLID_149_" class="st2" d="M382,182.7c3.8,0.2,5.4,0.9,8,2c1,2.2,1.6,2.8,2,6c-8.6,10.9-9.3,42.5-25,45
	c-2.4,2-6.5,2.1-11,2c-2.5-2.4-4.7-2.1-6-6c-0.9-1.1-0.6-0.9-1-3c5.4,0.8,9,2.2,15,1c1-1.6,3.5-3.4,4-5c1.6-4.9-2-9.3-3-12
	c-2.1-5.4-1.7-10.5-4-16c-1.8-4.3-4.7-9.1-6-14c1.3,0,2.7,0,4,0c1.2,0.9,1.7,0.8,4,1c1.3,1.9,3.8,3.1,5,5c2,6.3,4,12.7,6,19
	c0.3,0,0.7,0,1,0c0-0.3,0-0.7,0-1C379.4,202.2,381.9,191,382,182.7z"/>
<path id="XMLID_147_" class="st3" d="M233,188.7c-1.4,1.3-2.8,1.4-4,3c-3.9,4.3-1.9,16.5,0,21c3.7,1.8,6.4,2,11,1
	c1.5-6,2.4-14.8,1-22c-1.8-1-1.6-1.3-4-2C235.8,188.8,235.3,188.9,233,188.7z"/>
<path id="XMLID_145_" class="st3" d="M270,197.7c4.3,0,8.7,0,13,0c-0.1-3.3-0.5-4.5-1-7c-3.3-0.8-3.9-1.7-8-2c-1.1,0.9-0.2,0.4-2,1
	c-0.3,1-0.7,2-1,3C270,194,270,195.1,270,197.7z"/>
<path id="XMLID_143_" class="st3" d="M331,190.7c-1,1.7-2.5,3.7-4,5c-0.4,5.8-0.4,10.2,0,16c3.4,1,4.8,1.9,10,2c1.8-2.6,2.5-1.6,3-6
	c2.6-3.4,0.4-10.9,0-15C337.3,191.2,335.8,190.7,331,190.7z"/>
<path id="XMLID_141_" class="st3" d="M157,203.7c-6-0.1-9,1-13,2c-0.6,1.7-0.9,3.1-1,6c2.9,1.6,5.7,2.1,11,2c1.1-0.9,0.2-0.4,2-1
	C156.8,210.4,157,207.2,157,203.7z"/>
<path id="XMLID_139_" class="st2" d="M176,300.7c1.6-13.9,3.7-46.3-1-58c2,0,4,0,6,0c1.3,1.3,1.8,1.4,4,2c0.7,1.6,2.6,3.7,3,5
	c0,4.7,0,9.3,0,14c0.7,0,1.3,0,2,0c4.1-5.9,13.6-3.7,20-2c0.9,3,3.2,4.3,4,7c0,9,0,18,0,27c0.4,1.2,1.6,3.1,2,5c-2,0-4,0-6,0
	c-1.1-0.9-0.2-0.4-2-1c-1-1.6-3.3-2.7-4-4c-2.9-5.3-0.9-19.1-2-25c-2.5-1.4-3.5-2-8-2c-2.4,2.9-4.8,4.6-6,9c-2.5,9.1,3.4,17.9-5,21
	C181.2,300.2,179.3,300.5,176,300.7z"/>
<path id="XMLID_137_" class="st2" d="M62,283.7c0,1.3,0,2.7,0,4c11.8,7.7,10.7,4.1,24,2c0,0.7,0,1.3,0,2c-2.7,2.8-4.2,7.5-8,9
	c-10.7,4.3-22.8-1.1-25-9c-5.6-6.4-1.7-18.1,0-25c12.4-8.2,12.4-8.3,29-4c3,5.9,5.9,8.4,6,18C81.5,284.6,72.5,283.8,62,283.7z"/>
<path id="XMLID_135_" class="st2" d="M90,260.7c11.9,0.3,13.4,6.2,20,11c1.2,0.9,1.3,1.5,2,0c6.3-5.7,9.6-9.8,20-12c0,0.3,0,0.7,0,1
	c0.3,0,0.7,0,1,0c-4.2,6.6-13.1,11.7-14,21c3,2.8,3.6,6.4,6,10c2.1,3.1,5.9,5.6,8,9c-2.3,0-4.7,0-7,0c-2.5-2.1-6.2-2.1-9-4
	c-3.4-2.3-3.9-7.2-8-9c-3.6,7.7-9.8,13-21,13c0-0.3,0-0.7,0-1c4-2.6,13.1-15.5,14-21C100.3,277.1,90.4,262.6,90,260.7z"/>
<path id="XMLID_133_" class="st2" d="M148,259.7c7.4-0.3,13-0.1,16,4c0.3,0,0.7,0,1,0c0,0.3,0,0.7,0,1c-0.3,0-0.7,0-1,0
	c-2.2,1.6-10.3,1.5-13,2c-2.7,4.5-7.8,13.9-3,20c3,10.4,16.6,4.3,24,3c0,0.7,0,1.3,0,2c-2.7,2.8-2.6,5.6-7,7c-5.7,5.9-16.8,1.7-23,0
	c-6.1-9.6-7.1-9.5-7-26c1.8-1.7,1.5-3.8,3-6C140.3,263.3,145.1,262.5,148,259.7z"/>
<path id="XMLID_131_" class="st2" d="M246,275.7c0-1.7,0-3.3,0-5c-1.7-1-3.7-2.5-5-4c-6.9-0.1-10.5,1.3-16,2c0-0.3,0-0.7,0-1
	c1.3-1.3,1.4-1.8,2-4c5.7-2.7,9.6-4,19-4c3.3,3.2,7.4,2.9,9,8c2.5,2.8,4.1,21.9,1,26c-1.2,3.9-3.7,4.5-6,7c-6.3,0.5-17.3,2.8-22-1
	c-3.9-1.2-4.5-3.7-7-6c-0.1-6,1-9,2-13c2.7-0.8,2.3-2.1,4-3C231.8,275.1,238.9,275.7,246,275.7z"/>
<path id="XMLID_129_" class="st2" d="M277,259.7c11.2-0.4,20.5,0.8,23,9c4.8,5.9,0.9,25,4,32c-2,0-4,0-6,0c-2.1-2.1-5.9-3-7-6
	c-2.5-6.9,0.9-18.7-2-26c-1.6-0.6-2.4-0.8-5-1c-9.7-5.4-8.5,16.2-8,25c-1.2,1.3-1.5,2.9-2,5c-4,1.1-5.4,2.8-11,3c0-0.7,0-1.3,0-2
	c3.8-5.5-0.9-17.7,1-25c0.7-2.5,2.3-5.2,3-8C269.2,264.4,275.3,261.4,277,259.7z"/>
<path id="XMLID_127_" class="st2" d="M322,259.7c10.7-0.4,20.4,0.4,23,8c3.2,3.3,2.6,38.8,1,41c-1.2,4.3-4.6,7.7-10,8
	c-8.2,6.4-18.9-3.4-21-8c1,0,2,0,3,0c4.5,4,10.7,2.3,16,1c2-3.4,3-4.9,3-11c-0.3,0-0.7,0-1,0c-4,5.3-14.6,2.4-20,1c-1.7-2-3.3-4-5-6
	c-0.7-8.9-0.7-19.3,1-27c2.1-1.3,3.2-3.9,5-5C319.3,260.3,320.3,261.3,322,259.7z"/>
<path id="XMLID_125_" class="st2" d="M367,259.7c10.2-0.5,18.3,1.2,22,7c2.9,4.6,4.7,14-1,16c-4.5,3.1-17.8,0.2-23,2
	c0.7,1.7,1.3,3.3,2,5c9.1,4.4,12.9,2.4,22,0c0,1,0,2,0,3c-1.3,1.3-1.4,1.8-2,4c-8.7,4.3-10.7,4.9-23,4c-4.2-6-14.1-13-10-27
	c0.9-3,3.1-5.5,4-9C360.7,263.9,365,261.5,367,259.7z"/>
<path id="XMLID_123_" class="st3" d="M62,276.7c4.7,0,9.3,0,14,0c0.6-1.5,0.7-1.7,1-4c-1.7-1.2-2.3-2.8-4-4c-3-2.6-5.6-1.4-9,0
	C62.8,271.3,62.1,272.4,62,276.7z"/>
<path id="XMLID_121_" class="st3" d="M327,266.7c-1.9,1.7-4.1,3.4-6,5c-0.3,7.5-1.3,17.8,3,21c1.8,1.6,3.7,1.8,7,2
	c1.7-1.8,2.9-1.4,4-4c2.8-3.8,0.9-16.9,0-21c-1.8-1-1.6-1.3-4-2C329.8,266.8,329.3,266.9,327,266.7z"/>
<path id="XMLID_119_" class="st3" d="M366,276.7c4.3,0,8.7,0,13,0c0.6-1.6,0.8-2.4,1-5c-2.6-2.4-1.9-3.6-7-4
	C369,266.6,365.8,270.2,366,276.7z"/>
<path id="XMLID_117_" class="st3" d="M247,282.7c-6.2-0.1-9.6,1-14,2c0,0.7,0,1.3,0,2c-1,1.3-0.9,2.5-1,5c0.7,0,1.3,0,2,0
	c3.2,2.6,6.4,1.4,11,1c0.3-1,0.7-2,1-3C247.1,288.2,247,285.6,247,282.7z"/>
<path id="XMLID_115_" class="st2" d="M153,340.7c-5.5-0.7-3.8-3-9-4c-2,3.8-2.1,9.6-2,16c1.2,0.9,1.1,0.8,2,2c1.7-0.3,3.3-0.7,5-1
	c0-2,0-4,0-6c-2.1-0.3-1.9-0.1-3-1c-0.9-1.1-0.4-0.2-1-2c2.7,0,5.3,0,8,0c0,3.7,0,7.3,0,11c-1,0.3-2,0.7-3,1c-2.5,2-7.2,0.6-10,0
	c0-0.3,0-0.7,0-1c-0.3,0-0.7,0-1,0c-0.5-5.1-1-11.5-1-18c2.3-1.6,1.5-2.2,5-3c2.3-1.8,5.4-0.6,8,0c0.3,1,0.7,2,1,3
	C152.8,338.8,152.6,338.5,153,340.7z"/>
<path id="XMLID_113_" class="st2" d="M258,334.7c0.9,8.1,5.3,13.3,6,22c-0.3,0-0.7,0-1,0c0,0.3,0,0.7,0,1c-4.4-3.1-2.8-6-11-6
	c-1,2-2,4-3,6c-1.9-0.6-0.9-0.1-2-1c-0.3,0-0.7,0-1,0c2.2-6.4,3-16.1,7-21C254.3,334.7,255.4,334.7,258,334.7z"/>
<path id="XMLID_111_" class="st2" d="M293,334.7c1,0,2,0,3,0c0,2,0,4,0,6c2.3,0,4.7,0,7,0c0.3,1,0.7,2,1,3c2.2,2.9,0.7,9.9,0,13
	c-0.7,0-1.3,0-2,0c-1.9,1.5-6.9,0.7-8,0C291.3,353,292.9,340.4,293,334.7z"/>
<path id="XMLID_109_" class="st2" d="M160,340.7c2.3,0,4.7,0,7,0c0.3,1,0.7,2,1,3c1.8,2.3,0.6,10,0,11c-1.2,2.5,0.5,0.8-2,2
	c-1.4,1.1-3.3,1-6,1C156,351,156,347.2,160,340.7z"/>
<path id="XMLID_107_" class="st2" d="M181,340.7c-1,4.3-3.7,2.9-5,6c-1.3,3.1-0.2,8.6-1,11c-0.3,0-0.7,0-1,0c0-0.3,0-0.7,0-1
	c-2.2-2.9-1.1-13,0-16C177.3,341,176.7,340.8,181,340.7z"/>
<path id="XMLID_105_" class="st2" d="M184,340.7c7.7,0,10.1,0.1,17,0c0,0.7,0,1.3,0,2c2,2.6,1.1,10.6,1,15c-0.7,0-1.3,0-2,0
	c0-0.3,0-0.7,0-1c-1.7-2.6-0.2-9.5-2-12c-1.1-0.9-0.9-0.6-3-1c-0.5,3.3-0.2,12.5-3,14c0-0.3,0-0.7,0-1c-1.7-2.4-1.1-10.2-2-13
	c-1.9,0.6-0.9,0.1-2,1c-2.1,3.3,0.6,10-3,12c0,0.3,0,0.7,0,1c-0.3,0-0.7,0-1,0c0-0.7,0-1.3,0-2C181.8,352.9,182.9,343.6,184,340.7z"
	/>
<path id="XMLID_103_" class="st2" d="M217,357.7c-4.2-0.2-4-0.1-9,0c-1.4-2.5-2-3.5-2-8c2.3-2.7,0.8-4.3,1-8c2-0.7,4.7-1,8-1
	C217.1,344.6,217.1,351,217,357.7z"/>
<path id="XMLID_101_" class="st2" d="M222,340.7c4.1,0.2,4.7,0.1,10,0c0,0.7,0,1.3,0,2c2,2.6,1.1,10.6,1,15c-0.7,0-1.3,0-2,0
	c0-0.3,0-0.7,0-1c-1.7-2.4-1.1-10.2-2-13c-1.9,0.6-0.9,0.1-2,1c-3,1.6-2.2,7.5-2,12c-0.3,0-0.7,0-1,0c0,0.3,0,0.7,0,1
	c-0.7,0-1.3,0-2,0C222,352,222,346.3,222,340.7z"/>
<path id="XMLID_99_" class="st2" d="M268,340.7c2.3,0,4.7,0,7,0c0,0.7,0,1.3,0,2c-7,5.1-3.2,6.6-6,15c-0.3,0-0.7,0-1,0
	c0-0.3,0-0.7,0-1C265.8,353.8,266.8,343.7,268,340.7z"/>
<path id="XMLID_97_" class="st2" d="M279,340.7c2.3,0,4.7,0,7,0c3,4.9,3.1,7.5,3,16c-2.4,0.9-6.2,1-10,1c-1.4-2.5-2-3.5-2-8
	C279.3,347.2,278.4,344.5,279,340.7z"/>
<path id="XMLID_95_" class="st3" d="M254,341.7c-0.5,2.5-0.9,3.7-1,7c0.3,0,0.7,0,1,0c0-0.3,0-0.7,0-1c2.3,0.3,1,1.2,3,0
	c0.3,0,0.7,0,1,0c-0.7-2-1.3-4-2-6C255.3,341.7,254.6,341.7,254,341.7z"/>
<path id="XMLID_93_" class="st3" d="M161,347.7c1.3,0,2.7,0,4,0c0-1.3,0-2.7,0-4c-2.1,0.3-1.9,0.1-3,1c-0.3,0-0.7,0-1,0
	C161,345.7,161,346.7,161,347.7z"/>
<path id="XMLID_91_" class="st3" d="M210,343.7c-0.3,1-0.7,2-1,3c1.3,0,2.7,0,4,0c0.3-0.7,0.7-1.3,1-2c-0.3,0-0.7,0-1,0
	c0-0.3,0-0.7,0-1C212,343.7,211,343.7,210,343.7z"/>
<path id="XMLID_89_" class="st3" d="M282,343.7c-0.3,1-0.7,2-1,3c1.3,0,2.7,0,4,0c0-0.7,0-1.3,0-2c-0.3,0-0.7,0-1,0
	C282.9,343.7,283.8,344.3,282,343.7z"/>
<path id="XMLID_87_" class="st3" d="M298,343.7c-1.4,2.5-2,3.5-2,8c1,0.9,1.3,1.7,2,3c0.7,0,1.3,0,2,0c1.4-2.7,2-4.2,2-9
	C300.2,344.7,300.3,344.4,298,343.7z"/>
<path id="XMLID_85_" class="st2" d="M238,346.7c1.7,0,3.3,0,5,0c0,0.3,0,0.7,0,1c0.3,0,0.7,0,1,0c-0.6,1.9-0.1,0.9-1,2
	c-1.3,1-2.5,0.9-5,1C237.3,348.2,237.3,349.1,238,346.7z"/>
<path id="XMLID_83_" class="st3" d="M211,349.7c-1.3,1.9-1.4,0.8-2,4c0.3,0,0.7,0,1,0c0,0.3,0,0.7,0,1c1.9-0.6,0.9-0.1,2-1
	c0.9-1.1,0.4-0.2,1-2c0.3,0,0.7,0,1,0c0-0.3,0-0.7,0-1c-0.3,0-0.7,0-1,0C211.9,349.7,212.8,350.3,211,349.7z"/>
<path id="XMLID_81_" class="st3" d="M285,349.7c-2.1,0.3-1.9,0.1-3,1c-0.9,1.1-0.6,0.9-1,3c0.3,0,0.7,0,1,0c0,0.3,0,0.7,0,1
	c1-0.3,2-0.7,3-1C285,352.3,285,351,285,349.7z"/>
<path id="XMLID_79_" class="st3" d="M161,350.7c0.3,2.3,0.4,2.5,1,4c0.7,0,1.3,0,2,0c1-1.5,1.5-2,3-3c0-0.3,0-0.7,0-1
	C165,350.7,163,350.7,161,350.7z"/>
<path id="XMLID_77_" class="st2" d="M56,374.7c-1.7,0-3.3,0-5,0c0.3-2.1,0.1-1.9,1-3c2.2-1.6,8.2-1.1,12-1c0.3,0.7,0.7,1.3,1,2
	c0.3,0,0.7,0,1,0c0,0.3,0,0.7,0,1c-0.3,0-0.7,0-1,0c-0.9,0.7-4.4,1-5,2c0,6,0,12,0,18c-0.3,0-0.7,0-1,0c0,0.3,0,0.7,0,1
	c-1.9-0.6-0.9-0.1-2-1C54.6,390.4,55.9,379.8,56,374.7z"/>
<path id="XMLID_75_" class="st2" d="M125,370.7c2.6,1.3,1.3-0.2,2,3c-1.9,1.5-1.5,0.9-2,4c1,0.3,2,0.7,3,1c-3.4,5.8-1.8,9.5-4,16
	c-0.7,0-1.3,0-2,0c0.2-8.5,0-11.1-3-16c5.7-3.3,0.4-1.5,3-6C122.4,371.9,124.3,371.5,125,370.7z"/>
<path id="XMLID_73_" class="st2" d="M206,374.7c-1,0-2,0-3,0c0.3-2.3,0.4-2.5,1-4c0.3,0,0.7,0,1,0c0,0.3,0,0.7,0,1
	C205.8,372.8,205.6,372.5,206,374.7z"/>
<path id="XMLID_71_" class="st2" d="M249,371.7c6.2-0.4,6.5-1.2,12,1c0.6,1.6,0.8,2.4,1,5c0.8,1.3-0.4,3.3-1,6c-2.9,0.4-6.7,0.6-8,3
	c-1.5,2.1-0.7,5.5-1,7c-0.7,0.3-1.3,0.7-2,1c0-0.3,0-0.7,0-1C247.3,390,248.9,377.4,249,371.7z"/>
<path id="XMLID_69_" class="st2" d="M359,377.7c2.3,0,4.7,0,7,0c0.3,1,0.7,2,1,3c1.7,2.3,1.1,9,1,13c-0.3,0-0.7,0-1,0
	c0,0.3,0,0.7,0,1c-0.7,0-1.3,0-2,0c0.2-6-0.3-10.4-2-14c-1.9,0.6-0.9,0.1-2,1c-2.5,2.8-0.6,11-4,13c0-0.3,0-0.7,0-1
	c-2.6-3.5-1.4-18.3,0-22c0.7,0,1.3,0,2,0C359,373.7,359,375.7,359,377.7z"/>
<path id="XMLID_67_" class="st2" d="M372,374.7c0.7-3.2-0.5-1.7,2-3c0.3,1,0.7,2,1,3C374,374.7,373,374.7,372,374.7z"/>
<path id="XMLID_65_" class="st2" d="M196,373.7c2.2,1.7,2.4,3.5,5,5c-2.8,4.1-3.2,4.3-3,12c2.1,1.1,2,0.7,3,3c-0.3,0-0.7,0-1,0
	c-1.2,0.9-1.7,0.8-4,1c0-0.3,0-0.7,0-1c-0.3,0-0.7,0-1,0c-0.4-6.2-0.3-10.1-3-15C194.6,377.2,194.8,376.4,196,373.7z"/>
<path id="XMLID_63_" class="st3" d="M253,374.7c-0.3,1.7-0.7,3.3-1,5c1.2,0.9,1.1,0.8,2,2c1.9-0.6,0.9-0.1,2-1c3.1-1,2.4-0.5,3-4
	c-1.2-0.9-1.1-0.8-2-2C255.6,374.7,254.3,374.7,253,374.7z"/>
<path id="XMLID_61_" class="st2" d="M295,377.7c1,0,2,0,3,0c-0.7,3.1-5.7,7.3-3,13c1.2,2.4,1.9-0.9,3,4c-2-0.3-4-0.7-6-1
	c0.1-3.8,0.6-9.8-1-12c-1.1-0.9-0.9-0.6-3-1c-1.1,0.9-0.2,0.4-2,1c-0.7,4.3-1.3,8.7-2,13c-0.7,0-1.3,0-2,0c0-0.3,0-0.7,0-1
	c-2.2-2.9-1.1-13,0-16c7.3,1.1,7.5-1,13-3C295,375.7,295,376.7,295,377.7z"/>
<path id="XMLID_59_" class="st2" d="M66,377.7c3.3,0.4,5,0,8,1c-0.3,1-0.7,2-1,3c-6.6,1.3-3.2,7.6-5,13c-0.7-0.3-1.3-0.7-2-1
	c-1.2-3.4-1.1-9.2-1-14C65.9,378.6,65.3,379.5,66,377.7z"/>
<path id="XMLID_57_" class="st2" d="M79,377.7c2,0,4,0,6,0c2,3.8,2.1,9.6,2,16c-0.3,0-0.7,0-1,0c0,0.3,0,0.7,0,1
	c-3.2-0.3-3.5-0.1-8,0c-1.4-2.7-2-4.2-2-9c3.4-2.3-0.3-2,1-5C77.8,378.4,77.8,379.3,79,377.7z"/>
<path id="XMLID_55_" class="st2" d="M93,377.7c2.6,0.7,3.8,0.2,8,0c2.1,4,2.1,10.3,2,17c-0.7,0-1.3,0-2,0c0-0.3,0-0.7,0-1
	c-2.1-3.3,0.6-10-3-12c-1.6-0.8-0.1-0.1-3,0c0.1,4.6,0.1,9.9-1,13c-0.7-0.3-1.3-0.7-2-1C90.1,388.8,91,381.3,93,377.7z"/>
<path id="XMLID_53_" class="st2" d="M111,380.7c0,1,0,2,0,3c3.1,0.6,4.8,1.3,6,4c3.9,5-2.3,7.4-8,7c-1.2-2.3-1.7-2.2-2-6
	c0.7,0,1.3,0,2,0c1.5,2.3,1.5,2.5,5,3c-0.3-2.1-0.1-1.9-1-3c-3.6-3.1-5.8-2-6-9c1-0.3,2-0.7,3-1c1.3-1,2.5-0.9,5-1
	c1.1,1.6,1.1,0.8,2,3c0.3,0,0.7,0,1,0c0,0.3,0,0.7,0,1c-0.3,0-0.7,0-1,0C114.8,382.8,114.6,381.3,111,380.7z"/>
<path id="XMLID_51_" class="st2" d="M132,377.7c2.3,0,4.7,0,7,0c0.8,1.4,1.8,2.9,3,4c0.1,4.3-0.4,7.9-1,11c-2.7,1.4-4.2,2-9,2
	c-1.2-2.3-1.7-2.2-2-6C127.5,385.4,130.5,380.2,132,377.7z"/>
<path id="XMLID_49_" class="st2" d="M146,377.7c3.3,0.4,5,0,8,1c-1.1,1.7-4.6,3.2-5,4c-1.5,2.8-0.3,9.8-1,12c-0.7,0-1.3,0-2,0
	c0-3,0-6,0-9C145.7,385.1,145.9,381,146,377.7z"/>
<path id="XMLID_47_" class="st2" d="M159,393.7c-1,0-2,0-3,0c-0.1-5.3-0.4-12.2,1-16c5,0.5,9.4,0.2,16,0c0.3,1,0.7,2,1,3
	c1.7,2.3,1.1,9,1,13c-0.3,0-0.7,0-1,0c0,0.3,0,0.7,0,1c-0.3,0-0.7,0-1,0c0-0.3,0-0.7,0-1c-2.4-3.5-1.3-9-3-13c-0.7,0-1.3,0-2,0
	c0,0.7,0,1.3,0,2c-1.6,2.2-1.1,9.5-2,12c-0.3,0-0.7,0-1,0c0-0.3,0-0.7,0-1c-1.8-2.6-1.9-10.3-3-13c-0.7,0-1.3,0-2,0c0,0.7,0,1.3,0,2
	C158.4,384.7,158.9,390.1,159,393.7z"/>
<path id="XMLID_45_" class="st2" d="M181,377.7c2.3,0,4.7,0,7,0c0.3,1,0.7,2,1,3c1.7,2.3,1.1,9,1,13c-0.7,0-1.3,0-2,0
	c-1.6,1.2-4.9,1.1-8,1c0-0.3,0-0.7,0-1c-0.3,0-0.7,0-1,0C178.3,387.6,178.7,382.2,181,377.7z"/>
<path id="XMLID_43_" class="st2" d="M204,377.7c3,2.5,2.2,10.5,2,16c-0.3,0-0.7,0-1,0c0,0.3,0,0.7,0,1c-0.3,0-0.7,0-1,0
	c0-0.3,0-0.7,0-1C201.8,390.8,202.8,380.7,204,377.7z"/>
<path id="XMLID_41_" class="st2" d="M212,377.7c2.3,0,4.7,0,7,0c0.8,1.4,1.8,2.9,3,4c0.3,5.4,0.6,10.3-3,12c-2.3,1.8-5.4,0.6-8,0
	c0-0.7,0-1.3,0-2C207.2,387.5,210.1,381.6,212,377.7z"/>
<path id="XMLID_39_" class="st2" d="M226,377.7c11.6,1.3,11.8,0,11,16c-0.3,0-0.7,0-1,0c0,0.3,0,0.7,0,1c-0.3,0-0.7,0-1,0
	c0-0.3,0-0.7,0-1c-1.7-2.6-0.2-9.5-2-12c-1.1-0.9-0.9-0.6-3-1c-0.6,3.5-0.8,10.7-2,14c-0.7,0-1.3,0-2,0c-0.6-1.9-0.1-0.9-1-2
	C226.3,389.1,226,382.8,226,377.7z"/>
<path id="XMLID_37_" class="st2" d="M268,377.7c3.6,0,5.4,0.5,8,1c0,0.7,0,1.3,0,2c1.7,2.3,1.1,9,1,13c-2.4,0.9-6.2,1-10,1
	c-0.8-2.2-1-5.4-1-9c0.7,0,1.3,0,2,0c1.4-2.2-3-2.7-2-6C266,379.4,267.6,378.4,268,377.7z"/>
<path id="XMLID_35_" class="st2" d="M301,377.7c11.6,1.3,11.8,0,11,16c-0.3,0-0.7,0-1,0c0,0.3,0,0.7,0,1c-0.3,0-0.7,0-1,0
	c0-0.3,0-0.7,0-1c-1.7-2.6-0.2-9.5-2-12c-1.1-0.9-0.9-0.6-3-1c0,0.3,0,0.7,0,1c-0.3,0-0.7,0-1,0c0.1,4.8-0.3,9.5-1,13
	c-0.7,0-1.3,0-2,0c0-1.3,0-2.7,0-4C300.4,389.9,299.6,381.6,301,377.7z"/>
<path id="XMLID_33_" class="st2" d="M319,377.7c2,0,4,0,6,0c1,1.8,1.3,1.6,2,4c0.6,0.7,2,4,1,6c-0.7,0-1.3,0-2,0
	c-0.7,1.4,2.3,1.7,1,4c-1.3,3.7-3.2,3.2-8,3c-1.1-0.9-0.2-0.4-2-1c0-1,0-2,0-3c-2.1-2.7-0.6-8.1,0-11
	C318.2,378.8,318.1,378.9,319,377.7z"/>
<path id="XMLID_31_" class="st2" d="M333,377.7c2.5,0.7,4.2,0.1,7,1c0,0.7,0,1.3,0,2c-6.7,1.8-4.1,7.9-6,14c-0.3,0-0.7,0-1,0
	c0-0.3,0-0.7,0-1C330.8,390.8,331.8,380.7,333,377.7z"/>
<path id="XMLID_29_" class="st2" d="M349,391.7c-0.3-2.1-0.1-1.9-1-3c-3.6-3.1-5.8-2-6-9c2.7-1.4,4.2-2,9-2c0.6,1.6,0.8,2.4,1,5
	c-0.7,0-1.3,0-2,0c-1.3-1.3-1.8-1.4-4-2c0,1,0,2,0,3c4.9,1,7,2.9,7,9c-1,0.3-2,0.7-3,1c-1.4,1.1-3.3,1-6,1c-0.8-1.4-1.8-2.9-3-4
	c0.3-0.7,0.7-1.3,1-2C344.7,390,345.3,391.1,349,391.7z"/>
<path id="XMLID_27_" class="st2" d="M373,377.7c3,2.5,2.2,10.5,2,16c-0.3,0-0.7,0-1,0c0,0.3,0,0.7,0,1c-0.7,0-1.3,0-2,0
	C371.9,389.1,371.5,381.7,373,377.7z"/>
<path id="XMLID_25_" class="st2" d="M382,394.7c0,2,0,4,0,6c-0.7,0-1.3,0-2,0c0-0.3,0-0.7,0-1c-2.6-3.5-1.4-18.3,0-22
	c3.2,0.3,3.5,0.1,8,0c0.8,1.4,1.8,2.9,3,4c0.1,4.3-0.4,7.9-1,11C387.5,394,386.5,394.6,382,394.7z"/>
<path id="XMLID_23_" class="st3" d="M80,380.7c-0.3,1-0.7,2-1,3c1.7,0,3.3,0,5,0c0-0.3,0-0.7,0-1C82.1,381.3,83.1,381.3,80,380.7z"
	/>
<path id="XMLID_21_" class="st3" d="M134,380.7c-0.3,3.3-0.7,6.7-1,10c1.5,0.6,1.7,0.7,4,1c0.6-1.3,1-2.1,2-3c-0.3-2.7,0.1-3.4-1-5
	c-0.3-1-0.7-2-1-3C136,380.7,135,380.7,134,380.7z"/>
<path id="XMLID_19_" class="st3" d="M185.6,383.7c0-1,0-2,0-3c-3.8,0.3-4,0.4-6.5,1c0,0.7,0,1.3,0,2
	C181.3,383.7,183.4,383.7,185.6,383.7z"/>
<path id="XMLID_17_" class="st3" d="M214,380.7c-0.9,2.4-1,6.2-1,10c1.5,0.6,1.7,0.7,4,1c0.3-1,0.7-2,1-3c2.1-2.8,0.1-5.6-1-8
	C216,380.7,215,380.7,214,380.7z"/>
<path id="XMLID_15_" class="st3" d="M273,383.7c0-1,0-2,0-3c-2.3,0.3-2.5,0.4-4,1c0,0.7,0,1.3,0,2
	C270.3,383.7,271.6,383.7,273,383.7z"/>
<path id="XMLID_13_" class="st3" d="M324,384.7c0-1.3,0-2.7,0-4c-1,0-2,0-3,0c-0.3,0.7-0.7,1.3-1,2c-0.3,0-0.7,0-1,0
	c0,0.3,0,0.7,0,1c0.3,0,0.7,0,1,0C321.2,384.6,321.6,384.5,324,384.7z"/>
<path id="XMLID_11_" class="st3" d="M384,380.7c-1.2,2.7-1.9,3.8-2,8c1,0.9,1.3,1.7,2,3c1.9-0.6,0.9-0.1,2-1c2.5-2.4,2.4-6.4,0-9
	C384.9,380.7,385.8,381.3,384,380.7z"/>
<path id="XMLID_9_" class="st4" d="M82,386.7c-0.9,1-1.7,1.3-3,2c0.6,1.9,0.1,0.9,1,2c0,0.3,0,0.7,0,1c0.7,0,1.3,0,2,0
	c1-1.8,1.3-1.6,2-4C83.3,387.3,82.6,387,82,386.7z"/>
<path id="XMLID_7_" class="st4" d="M182,387.7c0,1.3,0,2.7,0,4c2.1-0.3,1.9-0.1,3-1c0.3,0,0.7,0,1,0c0-1,0-2,0-3
	C184.6,387.7,183.3,387.7,182,387.7z"/>
<path id="XMLID_5_" class="st4" d="M269,387.7c0.3,2.3,0.4,2.5,1,4c1.9-0.6,0.9-0.1,2-1c0.9-1.1,0.6-0.9,1-3
	C271.6,387.7,270.3,387.7,269,387.7z"/>
<path id="XMLID_3_" class="st4" d="M319,387.7c0,0.7,0,1.3,0,2c2.1,1.1,1.8,1.5,5,2c0.3-1.3,0.7-2.7,1-4
	C323,387.7,321,387.7,319,387.7z"/>
</svg>
