<?xml version="1.0" encoding="utf-8"?>
<!-- Generator: Adobe Illustrator 16.0.0, SVG Export Plug-In . SVG Version: 6.00 Build 0)  -->
<!DOCTYPE svg PUBLIC "-//W3C//DTD SVG 1.1//EN" "http://www.w3.org/Graphics/SVG/1.1/DTD/svg11.dtd">
<svg version="1.1" id="Calque_1" xmlns="http://www.w3.org/2000/svg" xmlns:xlink="http://www.w3.org/1999/xlink" x="0px" y="0px"
	 width="400px" height="128px" viewBox="0 0 400 128" enable-background="new 0 0 400 128" xml:space="preserve">
<rect x="158.564" y="77.532" fill="#878787" width="182.167" height="0.838"/>
<g>
	<defs>
		<rect id="SVGID_1_" x="7.382" y="-73.211" width="388.11" height="274.423"/>
	</defs>
	<clipPath id="SVGID_2_">
		<use xlink:href="#SVGID_1_"  overflow="visible"/>
	</clipPath>
	<path clip-path="url(#SVGID_2_)" fill="#878787" d="M164.523,39.189c75.966-10.417,152.717,10.904,225.636,57.82
		c-72.24-52.769-148.474-77.6-223.569-67.303c-56.92,7.806-108.422,35.146-153.306,78.406
		C58.373,70.686,109.121,46.786,164.523,39.189"/>
	<path clip-path="url(#SVGID_2_)" fill="#CA242C" d="M343.877,77.971c0,1.646-1.409,2.979-3.147,2.979s-3.146-1.334-3.146-2.979
		c0-1.646,1.408-2.98,3.146-2.98S343.877,76.324,343.877,77.971"/>
	<path clip-path="url(#SVGID_2_)" fill="#020202" d="M171.746,91.684h0.613v0.9h-0.431c-0.572,0-1.028-0.174-1.366-0.494
		c-0.013-0.013-0.025-0.013-0.037-0.035c-0.014,0.022-0.055,0.061-0.105,0.11c-0.297,0.283-0.703,0.419-1.209,0.419h-0.65
		c-0.649,0-1.118-0.174-1.443-0.48c-0.026,0.024-0.026,0.049-0.039,0.062c-0.301,0.283-0.703,0.419-1.209,0.419h-1.742
		c-0.133,0.616-0.443,1.133-0.965,1.539c-0.519,0.418-1.131,0.629-1.807,0.629c-0.781,0-1.444-0.26-1.99-0.776
		c-0.547-0.518-0.818-1.157-0.818-1.898v-2.893c0-0.111,0.051-0.173,0.167-0.173h0.613c0.116,0,0.169,0.062,0.169,0.173v2.893
		c0,0.494,0.182,0.912,0.547,1.258c0.363,0.345,0.805,0.518,1.312,0.518c0.507,0,0.949-0.173,1.313-0.518
		c0.364-0.346,0.547-0.764,0.547-1.258v-5.208c0-0.112,0.065-0.173,0.183-0.173h0.596c0.119,0,0.183,0.061,0.183,0.173v4.814h1.692
		c0.48,0,0.701-0.209,0.701-0.677v-3.817c0-0.111,0.053-0.161,0.17-0.161h0.625c0.104,0,0.154,0.05,0.154,0.161v3.99
		c0,0.136,0.039,0.233,0.118,0.308c0.142,0.125,0.39,0.196,0.767,0.196h0.819c0.481,0,0.7-0.209,0.7-0.677v-4.138
		c0-0.112,0.066-0.173,0.184-0.173h0.588c0.115,0,0.18,0.061,0.18,0.173v4.138C170.875,91.463,171.266,91.684,171.746,91.684"/>
	<path clip-path="url(#SVGID_2_)" fill="#020202" d="M179.039,92.584h-6.998v-0.9h2.639c-0.441-0.493-0.65-1.058-0.65-1.698v-0.925
		c0-0.714,0.261-1.342,0.795-1.847s1.197-0.764,1.95-0.764c0.754,0,1.404,0.259,1.937,0.764c0.535,0.505,0.796,1.133,0.796,1.847
		v3.067C179.507,92.375,179.297,92.584,179.039,92.584 M176.774,91.684h1.794v-2.623c0-0.936-0.805-1.699-1.794-1.699
		s-1.794,0.764-1.794,1.699v0.925C174.98,90.92,175.785,91.684,176.774,91.684 M175.369,85.083v-0.728
		c0-0.11,0.051-0.173,0.17-0.173h0.65c0.117,0,0.169,0.062,0.169,0.173v0.728c0,0.11-0.052,0.16-0.169,0.16h-0.65
		C175.42,85.243,175.369,85.193,175.369,85.083 M177.1,85.083v-0.728c0-0.11,0.064-0.173,0.184-0.173h0.621
		c0.119,0,0.184,0.062,0.184,0.173v0.728c0,0.11-0.064,0.16-0.184,0.16h-0.621C177.164,85.243,177.1,85.193,177.1,85.083"/>
	<path clip-path="url(#SVGID_2_)" fill="#020202" d="M183.229,91.684h0.638v0.9h-0.612c-1.015,0-1.652-0.604-1.652-1.564v-7.156
		c0-0.11,0.054-0.173,0.17-0.173h0.612c0.115,0,0.169,0.062,0.169,0.173v7.156C182.554,91.475,182.762,91.684,183.229,91.684"/>
	<path clip-path="url(#SVGID_2_)" fill="#020202" d="M193.154,92.584h-9.611v-0.9h2.823c-0.455-0.493-0.675-1.058-0.675-1.698
		v-0.925c0-0.714,0.272-1.331,0.805-1.834c0.533-0.506,1.197-0.766,1.951-0.766c0.756,0,1.405,0.26,1.938,0.766
		c0.533,0.503,0.807,1.12,0.807,1.834v2.623h1.963V92.584z M186.652,89.061v0.925c0,0.923,0.82,1.698,1.795,1.698h1.782v-2.623
		c0-0.936-0.807-1.699-1.782-1.699C187.473,87.361,186.652,88.139,186.652,89.061 M187.783,85.083v-0.728
		c0-0.11,0.066-0.173,0.183-0.173h0.637c0.116,0,0.182,0.062,0.182,0.173v0.728c0,0.11-0.065,0.16-0.182,0.16h-0.637
		C187.85,85.243,187.783,85.193,187.783,85.083"/>
	<path clip-path="url(#SVGID_2_)" fill="#020202" d="M202.6,91.684h0.613v0.9h-0.443c-0.675,0-1.171-0.247-1.52-0.665
		c-0.393,0.443-0.965,0.665-1.73,0.665h-6.803v-0.9h2.041v-4.655c0-0.11,0.065-0.16,0.183-0.16h0.612c0.115,0,0.169,0.05,0.169,0.16
		v1.145c1.288-1.132,2.394-1.712,3.341-1.712c1.691,0,2.667,1.208,2.667,2.847v1.699C201.729,91.464,202.119,91.684,202.6,91.684
		 M200.767,90.489v-1.182c0-0.431-0.091-0.826-0.259-1.146c-0.289-0.529-0.77-0.801-1.445-0.801c-0.857,0-1.975,0.677-3.341,2.032
		v2.29h3.798C200.376,91.684,200.767,91.315,200.767,90.489"/>
	<path clip-path="url(#SVGID_2_)" fill="#020202" d="M205.546,91.02v-4.15c0-0.112,0.066-0.173,0.183-0.173h0.598
		c0.118,0,0.183,0.061,0.183,0.173v4.138c0,0.961-0.651,1.577-1.665,1.577h-1.951v-0.9h1.951
		C205.339,91.673,205.546,91.487,205.546,91.02 M205.65,93.841v0.725c0,0.112-0.065,0.161-0.17,0.161h-0.637
		c-0.116,0-0.184-0.049-0.184-0.161v-0.725c0-0.112,0.067-0.173,0.184-0.173h0.637C205.585,93.668,205.65,93.729,205.65,93.841"/>
	<path clip-path="url(#SVGID_2_)" fill="#020202" d="M219.44,91.02v-4.15c0-0.112,0.065-0.173,0.168-0.173h0.611
		c0.118,0,0.169,0.061,0.169,0.173v4.15c0,0.96-0.65,1.564-1.651,1.564h-4.551c-0.78,0-1.446-0.26-1.989-0.776
		c-0.547-0.517-0.82-1.158-0.82-1.897c0-0.505,0.142-0.984,0.428-1.429c0.286-0.443,0.662-0.774,1.133-1.009l0.271-0.123
		c0.028-0.013,0.065-0.013,0.092-0.013c0.079,0,0.118,0.024,0.145,0.086l0.272,0.518c0.013,0.024,0.025,0.036,0.025,0.062
		c0,0.074-0.037,0.123-0.09,0.147l-0.273,0.136c-0.572,0.271-1.053,0.862-1.053,1.625c0,0.961,0.846,1.773,1.86,1.773h4.538
		C219.217,91.673,219.44,91.475,219.44,91.02 M215.135,86.142v-0.665c0-0.11,0.065-0.159,0.181-0.159h0.639
		c0.116,0,0.183,0.049,0.183,0.159v0.665c0,0.111-0.066,0.159-0.183,0.159h-0.639C215.2,86.301,215.135,86.253,215.135,86.142
		 M216.877,86.142v-0.665c0-0.11,0.054-0.159,0.169-0.159h0.65c0.117,0,0.17,0.049,0.17,0.159v0.665c0,0.111-0.053,0.159-0.17,0.159
		h-0.65C216.931,86.301,216.877,86.253,216.877,86.142"/>
	<path clip-path="url(#SVGID_2_)" fill="#020202" d="M224.114,91.684h0.637v0.9h-0.611c-1.014,0-1.651-0.604-1.651-1.564v-7.156
		c0-0.11,0.053-0.173,0.169-0.173h0.612c0.116,0,0.169,0.062,0.169,0.173v7.156C223.438,91.475,223.647,91.684,224.114,91.684"/>
	<path clip-path="url(#SVGID_2_)" fill="#020202" d="M227.082,91.007v-4.138c0-0.112,0.065-0.173,0.181-0.173h0.599
		c0.118,0,0.182,0.061,0.182,0.173v4.311c0,0.136,0.027,0.233,0.107,0.308c0.128,0.125,0.388,0.196,0.765,0.196h0.61v0.9h-0.44
		c-0.638,0-1.118-0.161-1.432-0.456c-0.013-0.013-0.024-0.013-0.024-0.024c0,0.012-0.026,0.049-0.04,0.062
		c-0.3,0.283-0.702,0.419-1.21,0.419h-1.951v-0.9h1.978C226.874,91.684,227.082,91.464,227.082,91.007 M226.588,93.926v0.715
		c0,0.111-0.053,0.172-0.169,0.172h-0.651c-0.115,0-0.169-0.061-0.169-0.172v-0.715c0-0.111,0.054-0.172,0.169-0.172h0.651
		C226.535,93.754,226.588,93.814,226.588,93.926 M228.331,93.926v0.715c0,0.111-0.065,0.172-0.181,0.172h-0.639
		c-0.119,0-0.183-0.061-0.183-0.172v-0.715c0-0.111,0.063-0.172,0.183-0.172h0.639C228.266,93.754,228.331,93.814,228.331,93.926"/>
	<path clip-path="url(#SVGID_2_)" fill="#020202" d="M237.475,91.684h0.976v0.9h-0.794c-0.675,0-1.234-0.26-1.562-0.715
		c-0.532,0.48-1.169,0.715-1.885,0.715h-5.006v-0.9h2.262v-2.623c0-0.714,0.272-1.342,0.808-1.847
		c0.533-0.505,1.183-0.764,1.937-0.764s1.404,0.259,1.939,0.764c0.532,0.505,0.806,1.133,0.806,1.847v0.925
		c0,0.43-0.104,0.825-0.313,1.205C236.732,91.524,237.047,91.684,237.475,91.684 M232.417,89.061v2.623h1.793
		c0.989,0,1.794-0.764,1.794-1.698v-0.925c0-0.936-0.805-1.699-1.794-1.699S232.417,88.139,232.417,89.061"/>
	<path clip-path="url(#SVGID_2_)" fill="#020202" d="M245.128,92.584h-6.997v-0.9h2.639c-0.439-0.493-0.649-1.058-0.649-1.698
		v-0.925c0-0.714,0.26-1.342,0.794-1.847c0.533-0.505,1.196-0.764,1.949-0.764c0.755,0,1.405,0.259,1.939,0.764
		c0.533,0.505,0.794,1.133,0.794,1.847v3.067C245.597,92.375,245.387,92.584,245.128,92.584 M242.863,91.684h1.795v-2.623
		c0-0.936-0.806-1.699-1.795-1.699c-0.988,0-1.792,0.764-1.792,1.699v0.925C241.071,90.92,241.875,91.684,242.863,91.684
		 M241.46,85.083v-0.728c0-0.11,0.051-0.173,0.169-0.173h0.651c0.116,0,0.17,0.062,0.17,0.173v0.728c0,0.11-0.054,0.16-0.17,0.16
		h-0.651C241.511,85.243,241.46,85.193,241.46,85.083 M243.19,85.083v-0.728c0-0.11,0.064-0.173,0.183-0.173h0.622
		c0.119,0,0.183,0.062,0.183,0.173v0.728c0,0.11-0.063,0.16-0.183,0.16h-0.622C243.255,85.243,243.19,85.193,243.19,85.083"/>
	<path clip-path="url(#SVGID_2_)" fill="#020202" d="M248.317,93.052v-6.171c0-0.11,0.065-0.172,0.184-0.172h0.599
		c0.116,0,0.182,0.062,0.182,0.172v4.803h1.977v0.9h-1.977v0.468c0,1.305-0.847,2.094-2.224,2.094h-0.65
		c-0.118,0-0.168-0.05-0.168-0.16v-0.578c0-0.112,0.05-0.161,0.168-0.161h0.65C247.929,94.246,248.317,93.877,248.317,93.052"/>
	<path clip-path="url(#SVGID_2_)" fill="#020202" d="M252.833,91.02v-7.156c0-0.11,0.051-0.173,0.17-0.173h0.609
		c0.117,0,0.171,0.062,0.171,0.173v7.156c0,0.96-0.65,1.564-1.653,1.564h-1.507v-0.9h1.507h0.014
		C252.626,91.673,252.833,91.464,252.833,91.02"/>
	<path clip-path="url(#SVGID_2_)" fill="#020202" d="M256.671,92.584h-0.625c-0.117,0-0.17-0.051-0.17-0.161v-8.571
		c0-0.111,0.053-0.161,0.17-0.161h0.625c0.104,0,0.156,0.05,0.156,0.161v8.571C256.827,92.533,256.775,92.584,256.671,92.584"/>
	<path clip-path="url(#SVGID_2_)" fill="#020202" d="M264.519,93.125h4.07v-4.617c0-0.567,0.194-1.048,0.621-1.442
		c0.418-0.406,0.938-0.604,1.536-0.604s1.093,0.198,1.521,0.604c0.431,0.395,0.639,0.875,0.639,1.442v3.176h1.639v0.9h-2.108
		c-0.26,0-0.479-0.209-0.479-0.456v-3.62c0-0.63-0.546-1.146-1.21-1.146c-0.662,0-1.209,0.517-1.209,1.146v5.074
		c0,0.244-0.222,0.441-0.479,0.441h-4.567c-0.753,0-1.404-0.258-1.963-0.775c-0.546-0.518-0.82-1.145-0.82-1.883
		c0-1.135,0.729-2.033,1.562-2.439l0.271-0.135c0.025-0.013,0.054-0.013,0.079-0.013c0.077,0,0.129,0.037,0.156,0.086l0.271,0.517
		c0.014,0.038,0.028,0.062,0.028,0.086c0,0.062-0.028,0.099-0.093,0.136l-0.272,0.135c-0.559,0.271-1.056,0.876-1.056,1.628
		C262.655,92.324,263.504,93.125,264.519,93.125 M265.778,95.367v0.727c0,0.111-0.052,0.161-0.17,0.161h-0.651
		c-0.116,0-0.167-0.05-0.167-0.161v-0.727c0-0.11,0.051-0.173,0.167-0.173h0.651C265.727,95.194,265.778,95.257,265.778,95.367
		 M267.508,95.367v0.727c0,0.111-0.053,0.161-0.169,0.161h-0.638c-0.116,0-0.182-0.05-0.182-0.161v-0.727
		c0-0.11,0.065-0.173,0.182-0.173h0.638C267.455,95.194,267.508,95.257,267.508,95.367"/>
	<path clip-path="url(#SVGID_2_)" fill="#020202" d="M281.262,92.584h-7.166v-0.9h2.823c-0.442-0.493-0.663-1.058-0.663-1.698
		v-0.925c0-0.714,0.272-1.342,0.804-1.847c0.534-0.505,1.185-0.764,1.938-0.764c0.756,0,1.406,0.259,1.938,0.764
		c0.533,0.505,0.807,1.133,0.807,1.847v3.067C281.743,92.375,281.522,92.584,281.262,92.584 M278.998,91.684h1.796v-2.623
		c0-0.936-0.807-1.699-1.796-1.699c-0.986,0-1.794,0.777-1.794,1.699v0.925C277.204,90.908,278.023,91.684,278.998,91.684
		 M278.348,85.083v-0.728c0-0.11,0.054-0.173,0.171-0.173h0.637c0.116,0,0.183,0.062,0.183,0.173v0.728
		c0,0.11-0.066,0.16-0.183,0.16h-0.637C278.401,85.243,278.348,85.193,278.348,85.083"/>
	<path clip-path="url(#SVGID_2_)" fill="#020202" d="M294.691,91.007v-4.138c0-0.112,0.048-0.173,0.167-0.173h0.612
		c0.119,0,0.169,0.061,0.169,0.173v4.311c0,0.136,0.039,0.233,0.115,0.308c0.132,0.125,0.393,0.196,0.77,0.196h0.597v0.9h-0.442
		c-0.637,0-1.118-0.161-1.429-0.456c0-0.013-0.015-0.024-0.015-0.024c-0.039,0.037-0.052,0.062-0.052,0.062h0.013
		c-0.299,0.283-0.7,0.419-1.209,0.419h-4.539c-0.78,0-1.457-0.26-2-0.776c-0.548-0.53-0.821-1.146-0.821-1.885
		c0-0.504,0.141-0.985,0.428-1.43c0.286-0.443,0.663-0.774,1.146-1.009l0.259-0.135c0.027-0.013,0.053-0.013,0.079-0.013
		c0.078,0,0.13,0.036,0.169,0.086l0.26,0.518c0.026,0.036,0.039,0.05,0.039,0.086c0,0.05-0.039,0.1-0.104,0.136l-0.261,0.123
		c-0.56,0.271-1.066,0.887-1.066,1.638c0,0.96,0.845,1.761,1.873,1.761h4.539C294.468,91.684,294.691,91.464,294.691,91.007
		 M290.398,86.142v-0.726c0-0.111,0.051-0.162,0.167-0.162h0.639c0.116,0,0.182,0.051,0.182,0.162v0.726
		c0,0.111-0.065,0.159-0.182,0.159h-0.639C290.449,86.301,290.398,86.253,290.398,86.142 M291.257,84.603v-0.728
		c0-0.11,0.063-0.16,0.181-0.16h0.64c0.115,0,0.167,0.05,0.167,0.16v0.728c0,0.11-0.052,0.16-0.167,0.16h-0.64
		C291.32,84.763,291.257,84.713,291.257,84.603 M292.296,85.254h0.651c0.116,0,0.168,0.051,0.168,0.162v0.726
		c0,0.111-0.052,0.159-0.168,0.159h-0.651c-0.116,0-0.168-0.048-0.168-0.159v-0.726C292.128,85.305,292.18,85.254,292.296,85.254"/>
	<path clip-path="url(#SVGID_2_)" fill="#020202" d="M303.552,90.489v-1.182c0-0.543-0.196-0.986-0.598-1.367
		c-0.401-0.382-0.872-0.579-1.444-0.579c-0.936,0-1.636,0.308-2.092,0.924l-0.172,0.233c-0.038,0.05-0.089,0.074-0.143,0.074
		c-0.036,0-0.062-0.012-0.104-0.037l-0.493-0.332c-0.041-0.025-0.053-0.062-0.067-0.112v-0.023c0-0.038,0.015-0.073,0.026-0.098
		l0.171-0.235c0.663-0.861,1.625-1.294,2.873-1.294c0.833,0,1.535,0.285,2.12,0.839c0.586,0.555,0.885,1.219,0.885,2.008v1.872
		c0,0.136,0.026,0.233,0.104,0.308c0.13,0.125,0.39,0.196,0.768,0.196h0.612v0.9h-0.443c-0.741,0-1.263-0.198-1.572-0.616
		c-0.391,0.418-0.951,0.616-1.68,0.616h-5.501v-0.9h5.501C303.176,91.684,303.552,91.315,303.552,90.489"/>
	<path clip-path="url(#SVGID_2_)" fill="#020202" d="M308.264,91.02v-4.15c0-0.112,0.055-0.173,0.17-0.173h0.611
		c0.117,0,0.171,0.061,0.171,0.173v4.312c0,0.146,0.037,0.245,0.116,0.318c0.129,0.123,0.389,0.185,0.765,0.185h0.601v0.9h-0.443
		c-0.65,0-1.117-0.174-1.443-0.48c-0.312,0.296-0.688,0.48-1.248,0.48h-1.885v-0.9h1.897
		C308.044,91.673,308.264,91.475,308.264,91.02 M309.242,93.841v0.725c0,0.112-0.069,0.161-0.185,0.161h-0.637
		c-0.117,0-0.17-0.049-0.17-0.161v-0.725c0-0.112,0.053-0.173,0.17-0.173h0.637C309.173,93.668,309.242,93.729,309.242,93.841"/>
	<path clip-path="url(#SVGID_2_)" fill="#020202" d="M312.585,91.02v-7.156c0-0.11,0.051-0.173,0.168-0.173h0.613
		c0.117,0,0.169,0.062,0.169,0.173v7.156c0,0.96-0.652,1.564-1.651,1.564h-1.51v-0.9h1.51h0.012
		C312.378,91.673,312.585,91.464,312.585,91.02"/>
	<path clip-path="url(#SVGID_2_)" fill="#020202" d="M316.424,92.584h-0.625c-0.115,0-0.169-0.051-0.169-0.161v-8.571
		c0-0.111,0.054-0.161,0.169-0.161h0.625c0.104,0,0.157,0.05,0.157,0.161v8.571C316.581,92.533,316.527,92.584,316.424,92.584"/>
	<path clip-path="url(#SVGID_2_)" fill="#020202" d="M322.527,93.052v-6.171c0-0.11,0.052-0.172,0.168-0.172h0.613
		c0.115,0,0.18,0.062,0.18,0.172v4.803h1.99v0.9h-1.99v0.468c0,1.305-0.847,2.094-2.222,2.094h-0.65c-0.118,0-0.17-0.05-0.17-0.16
		v-0.578c0-0.112,0.052-0.161,0.17-0.161h0.65C322.136,94.246,322.527,93.877,322.527,93.052 M322.527,85.083v-0.728
		c0-0.11,0.052-0.173,0.168-0.173h0.639c0.114,0,0.18,0.062,0.18,0.173v0.728c0,0.11-0.065,0.16-0.18,0.16h-0.639
		C322.579,85.243,322.527,85.193,322.527,85.083"/>
	<path clip-path="url(#SVGID_2_)" fill="#020202" d="M329.812,84.159h1.08c0.117,0,0.17,0.05,0.17,0.16v0.578
		c0,0.111-0.053,0.16-0.17,0.16h-1.08c-1.351,0-2.106,0.678-2.249,2.008h2.433c0.831,0,1.521,0.258,2.068,0.789
		c0.544,0.528,0.805,1.194,0.805,1.994v1.171c0,0.96-0.639,1.564-1.652,1.564h-6.386v-0.9h6.372c0.481,0,0.716-0.209,0.716-0.664
		v-1.171c0-1.107-0.767-1.884-1.923-1.884h-2.927c-0.262,0-0.482-0.197-0.482-0.444C326.586,85.501,327.72,84.159,329.812,84.159"/>
	<path clip-path="url(#SVGID_2_)" fill="#020202" d="M335.591,93.052v-6.171c0-0.11,0.064-0.172,0.183-0.172h0.597
		c0.116,0,0.184,0.062,0.184,0.172v4.803h1.975v0.9h-1.975v0.468c0,1.305-0.846,2.094-2.225,2.094h-0.65
		c-0.116,0-0.168-0.05-0.168-0.16v-0.578c0-0.112,0.052-0.161,0.168-0.161h0.65C335.2,94.246,335.591,93.877,335.591,93.052"/>
	<path clip-path="url(#SVGID_2_)" fill="#020202" d="M344.724,87.227c0.532,0.503,0.806,1.12,0.806,1.834v0.925
		c0,0.713-0.273,1.33-0.806,1.835c-0.534,0.504-1.196,0.764-1.95,0.764h-4.877v-0.9h2.132v-2.623c0-0.714,0.272-1.331,0.807-1.834
		c0.531-0.506,1.183-0.766,1.938-0.766C343.527,86.461,344.189,86.721,344.724,87.227 M344.566,89.985v-0.925
		c0-0.922-0.819-1.699-1.793-1.699c-0.978,0-1.784,0.777-1.784,1.699v2.623h1.784C343.747,91.684,344.566,90.908,344.566,89.985"/>
	<path clip-path="url(#SVGID_2_)" fill="#020202" d="M162.236,54.5l0.014,0.035c0.016,0.823-0.289,1.511-0.916,2.064
		c-0.627,0.553-1.455,0.83-2.484,0.83c-1.045,0-1.898-0.351-2.557-1.053c-0.659-0.703-0.988-1.593-0.988-2.671v-1.559
		c0-1.079,0.329-1.971,0.988-2.675c0.658-0.705,1.512-1.056,2.557-1.056c1.047,0,1.88,0.264,2.498,0.791
		c0.618,0.528,0.918,1.227,0.902,2.097l-0.014,0.036h-1.201c0-0.614-0.189-1.099-0.571-1.456c-0.38-0.358-0.919-0.536-1.614-0.536
		c-0.699,0-1.256,0.267-1.67,0.8c-0.416,0.534-0.623,1.195-0.623,1.986v1.571c0,0.798,0.207,1.464,0.623,1.998
		c0.414,0.534,0.971,0.8,1.67,0.8c0.695,0,1.234-0.179,1.614-0.533c0.382-0.355,0.571-0.845,0.571-1.47H162.236z"/>
	<path clip-path="url(#SVGID_2_)" fill="#020202" d="M166.551,57.43c-0.986,0-1.757-0.299-2.31-0.897
		c-0.553-0.597-0.829-1.383-0.829-2.358V53.91c0-0.935,0.285-1.708,0.855-2.32c0.568-0.612,1.264-0.918,2.086-0.918
		c0.92,0,1.609,0.271,2.068,0.812s0.689,1.262,0.689,2.16v0.627h-4.396l-0.02,0.03c0,0.654,0.152,1.184,0.457,1.591
		c0.307,0.408,0.771,0.611,1.398,0.611c0.424,0,0.795-0.058,1.115-0.172c0.32-0.114,0.594-0.271,0.822-0.472l0.49,0.77
		c-0.246,0.226-0.569,0.415-0.973,0.569C167.604,57.352,167.118,57.43,166.551,57.43 M166.354,51.605
		c-0.436,0-0.797,0.16-1.084,0.478c-0.285,0.319-0.46,0.727-0.523,1.225l0.013,0.03h3.101v-0.097c0-0.473-0.123-0.865-0.368-1.173
		C167.245,51.759,166.867,51.605,166.354,51.605"/>
	<path clip-path="url(#SVGID_2_)" fill="#020202" d="M171.635,50.793l0.088,0.969c0.229-0.346,0.516-0.612,0.861-0.803
		c0.345-0.191,0.738-0.286,1.178-0.286c0.742,0,1.316,0.206,1.723,0.617s0.609,1.046,0.609,1.904v4.11h-1.251v-4.086
		c0-0.574-0.119-0.981-0.36-1.222c-0.238-0.241-0.604-0.361-1.095-0.361c-0.386,0-0.713,0.074-0.981,0.22
		c-0.27,0.146-0.482,0.351-0.639,0.617v4.832h-1.252v-6.511H171.635z"/>
	<path clip-path="url(#SVGID_2_)" fill="#020202" d="M179.652,49.223v1.57h1.303v0.878h-1.303v3.954
		c0,0.304,0.066,0.519,0.201,0.644c0.133,0.125,0.309,0.186,0.529,0.186c0.073,0,0.152-0.009,0.242-0.026
		c0.089-0.018,0.162-0.038,0.221-0.057l0.174,0.812c-0.094,0.072-0.232,0.131-0.414,0.177c-0.183,0.047-0.361,0.069-0.54,0.069
		c-0.509,0-0.913-0.145-1.214-0.436c-0.301-0.291-0.451-0.748-0.451-1.369v-3.954h-1.094v-0.878h1.094v-1.57H179.652z"/>
	<path clip-path="url(#SVGID_2_)" fill="#020202" d="M185.549,51.84l-0.642-0.036c-0.331,0-0.608,0.075-0.837,0.223
		c-0.226,0.148-0.4,0.357-0.522,0.625v4.652h-1.252v-6.511h1.118l0.12,0.95c0.194-0.336,0.436-0.599,0.722-0.788
		c0.285-0.189,0.615-0.283,0.988-0.283c0.094,0,0.182,0.007,0.267,0.021c0.085,0.014,0.153,0.029,0.21,0.045L185.549,51.84z"/>
	<path clip-path="url(#SVGID_2_)" fill="#020202" d="M189.577,57.43c-0.987,0-1.757-0.299-2.31-0.897
		c-0.553-0.597-0.829-1.383-0.829-2.358V53.91c0-0.935,0.285-1.708,0.854-2.32c0.57-0.612,1.265-0.918,2.088-0.918
		c0.919,0,1.607,0.271,2.067,0.812s0.688,1.262,0.688,2.16v0.627h-4.396l-0.018,0.03c0,0.654,0.152,1.184,0.456,1.591
		c0.306,0.408,0.771,0.611,1.398,0.611c0.424,0,0.794-0.058,1.114-0.172c0.32-0.114,0.595-0.271,0.822-0.472l0.49,0.77
		c-0.246,0.226-0.569,0.415-0.972,0.569C190.63,57.352,190.145,57.43,189.577,57.43 M189.381,51.605
		c-0.438,0-0.799,0.16-1.085,0.478c-0.285,0.319-0.46,0.727-0.522,1.225l0.012,0.03h3.101v-0.097c0-0.473-0.122-0.865-0.368-1.173
		C190.271,51.759,189.893,51.605,189.381,51.605"/>
	<path clip-path="url(#SVGID_2_)" fill="#020202" d="M196.49,54.169c0-1.047,0.236-1.893,0.709-2.534
		c0.471-0.641,1.133-0.962,1.984-0.962c0.402,0,0.76,0.07,1.071,0.21c0.312,0.14,0.577,0.345,0.798,0.614v-3.58h1.251v9.387h-0.96
		l-0.19-0.824c-0.224,0.313-0.501,0.549-0.832,0.71c-0.33,0.16-0.714,0.24-1.149,0.24c-0.84,0-1.496-0.287-1.971-0.863
		c-0.474-0.576-0.711-1.333-0.711-2.271V54.169z M197.741,54.295c0,0.657,0.142,1.185,0.427,1.579
		c0.283,0.396,0.724,0.593,1.321,0.593c0.372,0,0.687-0.08,0.94-0.24s0.462-0.385,0.623-0.674v-3.039
		c-0.161-0.27-0.371-0.483-0.627-0.641c-0.256-0.159-0.564-0.238-0.924-0.238c-0.603,0-1.046,0.235-1.332,0.704
		c-0.285,0.47-0.429,1.08-0.429,1.83V54.295z"/>
	<path clip-path="url(#SVGID_2_)" fill="#020202" d="M207.019,57.43c-0.986,0-1.757-0.299-2.31-0.897
		c-0.552-0.597-0.829-1.383-0.829-2.358V53.91c0-0.935,0.284-1.708,0.854-2.32c0.569-0.612,1.265-0.918,2.086-0.918
		c0.92,0,1.609,0.271,2.069,0.812c0.459,0.542,0.688,1.262,0.688,2.16v0.627h-4.396l-0.019,0.03c0,0.654,0.151,1.184,0.457,1.591
		c0.305,0.408,0.771,0.611,1.398,0.611c0.423,0,0.795-0.058,1.114-0.172c0.32-0.114,0.595-0.271,0.822-0.472l0.49,0.77
		c-0.246,0.226-0.569,0.415-0.972,0.569C208.071,57.352,207.586,57.43,207.019,57.43 M206.82,51.605
		c-0.436,0-0.797,0.16-1.083,0.478c-0.285,0.319-0.459,0.727-0.523,1.225l0.013,0.03h3.1v-0.097c0-0.473-0.122-0.865-0.368-1.173
		C207.713,51.759,207.333,51.605,206.82,51.605"/>
	<path clip-path="url(#SVGID_2_)" fill="#020202" d="M215.641,53.507v3.797h-1.252v-8.756h3.164c1.013,0,1.786,0.213,2.319,0.638
		c0.534,0.426,0.8,1.043,0.8,1.854c0,0.449-0.123,0.84-0.37,1.173c-0.249,0.333-0.61,0.598-1.085,0.794
		c0.509,0.157,0.874,0.411,1.096,0.762c0.225,0.351,0.335,0.785,0.335,1.303v0.824c0,0.272,0.032,0.518,0.095,0.734
		c0.064,0.217,0.175,0.394,0.331,0.529v0.146h-1.291c-0.165-0.136-0.271-0.336-0.316-0.602c-0.048-0.266-0.07-0.537-0.07-0.818v-0.8
		c0-0.474-0.146-0.855-0.438-1.144s-0.685-0.433-1.175-0.433H215.641z M215.641,52.574h1.786c0.706,0,1.215-0.128,1.526-0.382
		c0.312-0.255,0.469-0.643,0.469-1.164c0-0.494-0.152-0.876-0.454-1.147c-0.305-0.27-0.775-0.406-1.415-0.406h-1.912V52.574z"/>
	<path clip-path="url(#SVGID_2_)" fill="#020202" d="M225.343,57.43c-0.987,0-1.757-0.299-2.31-0.897
		c-0.553-0.597-0.83-1.383-0.83-2.358V53.91c0-0.935,0.285-1.708,0.855-2.32s1.266-0.918,2.087-0.918
		c0.919,0,1.608,0.271,2.068,0.812c0.459,0.542,0.688,1.262,0.688,2.16v0.627h-4.396l-0.019,0.03c0,0.654,0.152,1.184,0.457,1.591
		c0.306,0.408,0.771,0.611,1.398,0.611c0.424,0,0.795-0.058,1.115-0.172c0.319-0.114,0.594-0.271,0.822-0.472l0.489,0.77
		c-0.246,0.226-0.569,0.415-0.972,0.569C226.396,57.352,225.911,57.43,225.343,57.43 M225.146,51.605
		c-0.437,0-0.798,0.16-1.084,0.478c-0.285,0.319-0.46,0.727-0.522,1.225l0.012,0.03h3.101v-0.097c0-0.473-0.122-0.865-0.368-1.173
		C226.038,51.759,225.657,51.605,225.146,51.605"/>
	<path clip-path="url(#SVGID_2_)" fill="#020202" d="M232.04,56.503c0.386,0,0.723-0.122,1.01-0.364
		c0.287-0.243,0.432-0.541,0.432-0.895h1.131l0.02,0.037c0.018,0.561-0.237,1.06-0.763,1.495c-0.525,0.435-1.136,0.653-1.829,0.653
		c-0.966,0-1.713-0.311-2.238-0.933c-0.523-0.622-0.786-1.396-0.786-2.323v-0.253c0-0.918,0.263-1.689,0.791-2.314
		c0.527-0.623,1.271-0.935,2.233-0.935c0.766,0,1.395,0.225,1.884,0.673c0.488,0.45,0.726,1.001,0.708,1.655l-0.013,0.037h-1.138
		c0-0.397-0.136-0.736-0.409-1.014c-0.274-0.279-0.618-0.418-1.032-0.418c-0.614,0-1.063,0.226-1.344,0.677
		c-0.282,0.452-0.423,0.998-0.423,1.639v0.253c0,0.654,0.138,1.205,0.416,1.655C230.966,56.278,231.418,56.503,232.04,56.503"/>
	<path clip-path="url(#SVGID_2_)" fill="#020202" d="M237.369,51.666c0.239-0.313,0.528-0.557,0.875-0.732
		c0.345-0.174,0.728-0.261,1.146-0.261c0.732,0,1.304,0.208,1.712,0.626c0.409,0.417,0.614,1.059,0.614,1.925v4.08h-1.252v-4.092
		c0-0.538-0.122-0.935-0.366-1.192c-0.243-0.256-0.606-0.385-1.089-0.385c-0.373,0-0.697,0.069-0.972,0.208
		c-0.276,0.139-0.499,0.333-0.669,0.581v4.88h-1.251v-9.387h1.251V51.666z"/>
	<path clip-path="url(#SVGID_2_)" fill="#020202" d="M246.36,57.43c-0.986,0-1.756-0.299-2.309-0.897
		c-0.553-0.597-0.83-1.383-0.83-2.358V53.91c0-0.935,0.286-1.708,0.855-2.32s1.266-0.918,2.087-0.918
		c0.919,0,1.609,0.271,2.068,0.812s0.688,1.262,0.688,2.16v0.627h-4.396l-0.019,0.03c0,0.654,0.152,1.184,0.457,1.591
		c0.306,0.408,0.771,0.611,1.397,0.611c0.425,0,0.796-0.058,1.115-0.172c0.32-0.114,0.595-0.271,0.823-0.472l0.489,0.77
		c-0.245,0.226-0.569,0.415-0.973,0.569C247.413,57.352,246.929,57.43,246.36,57.43 M246.164,51.605
		c-0.436,0-0.798,0.16-1.085,0.478c-0.285,0.319-0.459,0.727-0.522,1.225l0.012,0.03h3.102v-0.097c0-0.473-0.122-0.865-0.368-1.173
		C247.055,51.759,246.677,51.605,246.164,51.605"/>
	<path clip-path="url(#SVGID_2_)" fill="#020202" d="M253.58,51.84l-0.644-0.036c-0.329,0-0.608,0.075-0.834,0.223
		c-0.229,0.148-0.402,0.357-0.524,0.625v4.652h-1.253v-6.511h1.119l0.12,0.95c0.194-0.336,0.436-0.599,0.722-0.788
		c0.285-0.189,0.615-0.283,0.988-0.283c0.093,0,0.182,0.007,0.267,0.021c0.084,0.014,0.154,0.029,0.208,0.045L253.58,51.84z"/>
	<path clip-path="url(#SVGID_2_)" fill="#020202" d="M257.493,56.503c0.385,0,0.722-0.122,1.01-0.364
		c0.287-0.243,0.432-0.541,0.432-0.895h1.132l0.019,0.037c0.017,0.561-0.236,1.06-0.762,1.495c-0.526,0.435-1.137,0.653-1.83,0.653
		c-0.966,0-1.712-0.311-2.238-0.933c-0.523-0.622-0.786-1.396-0.786-2.323v-0.253c0-0.918,0.264-1.689,0.79-2.314
		c0.527-0.623,1.271-0.935,2.234-0.935c0.767,0,1.395,0.225,1.884,0.673c0.489,0.45,0.725,1.001,0.708,1.655l-0.014,0.037h-1.137
		c0-0.397-0.136-0.736-0.409-1.014c-0.273-0.279-0.617-0.418-1.032-0.418c-0.614,0-1.063,0.226-1.345,0.677
		c-0.281,0.452-0.422,0.998-0.422,1.639v0.253c0,0.654,0.14,1.205,0.416,1.655C256.42,56.278,256.87,56.503,257.493,56.503"/>
	<path clip-path="url(#SVGID_2_)" fill="#020202" d="M262.825,51.666c0.235-0.313,0.527-0.557,0.872-0.732
		c0.345-0.174,0.728-0.261,1.147-0.261c0.732,0,1.304,0.208,1.712,0.626c0.409,0.417,0.612,1.059,0.612,1.925v4.08h-1.251v-4.092
		c0-0.538-0.121-0.935-0.365-1.192c-0.243-0.256-0.607-0.385-1.091-0.385c-0.371,0-0.695,0.069-0.972,0.208
		c-0.274,0.139-0.498,0.333-0.665,0.581v4.88h-1.254v-9.387h1.254V51.666z"/>
	<path clip-path="url(#SVGID_2_)" fill="#020202" d="M271.813,57.43c-0.985,0-1.757-0.299-2.31-0.897
		c-0.553-0.597-0.829-1.383-0.829-2.358V53.91c0-0.935,0.285-1.708,0.854-2.32c0.57-0.612,1.267-0.918,2.088-0.918
		c0.919,0,1.607,0.271,2.068,0.812c0.46,0.542,0.689,1.262,0.689,2.16v0.627h-4.397l-0.019,0.03c0,0.654,0.151,1.184,0.458,1.591
		c0.304,0.408,0.771,0.611,1.396,0.611c0.424,0,0.797-0.058,1.116-0.172c0.319-0.114,0.593-0.271,0.822-0.472l0.489,0.77
		c-0.245,0.226-0.569,0.415-0.972,0.569C272.867,57.352,272.383,57.43,271.813,57.43 M271.617,51.605
		c-0.436,0-0.798,0.16-1.083,0.478c-0.286,0.319-0.46,0.727-0.524,1.225l0.013,0.03h3.101v-0.097c0-0.473-0.123-0.865-0.369-1.173
		C272.51,51.759,272.13,51.605,271.617,51.605"/>
	<path clip-path="url(#SVGID_2_)" fill="#020202" d="M160.219,71.853c-0.986,0-1.756-0.299-2.309-0.896
		c-0.554-0.598-0.83-1.384-0.83-2.358v-0.266c0-0.934,0.285-1.707,0.855-2.319c0.569-0.611,1.266-0.918,2.088-0.918
		c0.918,0,1.607,0.271,2.067,0.812c0.459,0.542,0.689,1.262,0.689,2.16v0.628h-4.397l-0.02,0.028c0,0.653,0.152,1.184,0.459,1.592
		c0.304,0.407,0.771,0.61,1.396,0.61c0.424,0,0.797-0.058,1.115-0.171c0.32-0.115,0.594-0.272,0.824-0.473l0.488,0.77
		c-0.246,0.225-0.568,0.415-0.973,0.568C161.271,71.773,160.787,71.853,160.219,71.853 M160.023,66.029
		c-0.438,0-0.798,0.158-1.084,0.477c-0.286,0.319-0.461,0.728-0.524,1.225l0.013,0.03h3.102v-0.097c0-0.473-0.124-0.863-0.369-1.173
		C160.914,66.183,160.535,66.029,160.023,66.029"/>
	<path clip-path="url(#SVGID_2_)" fill="#020202" d="M165.303,65.215l0.088,0.97c0.23-0.346,0.517-0.613,0.861-0.805
		c0.345-0.19,0.738-0.285,1.179-0.285c0.742,0,1.315,0.206,1.723,0.618c0.407,0.41,0.609,1.044,0.609,1.903v4.11h-1.252V67.64
		c0-0.572-0.118-0.98-0.358-1.221c-0.239-0.24-0.605-0.361-1.096-0.361c-0.387,0-0.714,0.074-0.982,0.22
		c-0.27,0.146-0.481,0.353-0.639,0.617v4.832h-1.252v-6.512H165.303z"/>
	<polygon clip-path="url(#SVGID_2_)" fill="#020202" points="181.98,71.727 180.729,71.727 176.275,65.036 176.238,65.046 
		176.238,71.727 174.986,71.727 174.986,62.965 176.238,62.965 180.691,69.65 180.729,69.639 180.729,62.965 181.98,62.965 	"/>
	<path clip-path="url(#SVGID_2_)" fill="#020202" d="M188.342,70.764c-0.217,0.349-0.494,0.617-0.833,0.806
		c-0.339,0.19-0.731,0.283-1.175,0.283c-0.75,0-1.334-0.228-1.754-0.68c-0.42-0.454-0.629-1.159-0.629-2.119v-3.839h1.252v3.852
		c0,0.695,0.107,1.171,0.324,1.432c0.215,0.261,0.553,0.393,1.01,0.393c0.444,0,0.812-0.087,1.103-0.257s0.509-0.411,0.657-0.726
		v-4.693h1.252v6.512h-1.125L188.342,70.764z"/>
	<path clip-path="url(#SVGID_2_)" fill="#020202" d="M192.49,65.215l0.09,0.855c0.225-0.309,0.509-0.549,0.854-0.72
		c0.346-0.171,0.746-0.256,1.205-0.256c0.457,0,0.85,0.101,1.178,0.301c0.328,0.201,0.574,0.501,0.74,0.903
		c0.221-0.373,0.508-0.667,0.861-0.882s0.768-0.322,1.242-0.322c0.699,0,1.252,0.228,1.658,0.684s0.61,1.14,0.61,2.055v3.894h-1.252
		V67.82c0-0.641-0.116-1.096-0.351-1.362c-0.232-0.267-0.58-0.4-1.041-0.4c-0.428,0-0.773,0.14-1.039,0.422
		c-0.264,0.279-0.421,0.635-0.467,1.065v0.048v4.134h-1.258V67.82c0-0.609-0.12-1.056-0.359-1.338
		c-0.238-0.284-0.584-0.425-1.032-0.425c-0.382,0-0.694,0.075-0.94,0.224c-0.246,0.147-0.434,0.355-0.565,0.624v4.821h-1.251v-6.512
		H192.49z"/>
	<path clip-path="url(#SVGID_2_)" fill="#020202" d="M205.592,71.853c-0.987,0-1.757-0.299-2.31-0.896s-0.829-1.384-0.829-2.358
		v-0.266c0-0.934,0.285-1.707,0.855-2.319c0.569-0.611,1.266-0.918,2.086-0.918c0.92,0,1.609,0.271,2.068,0.812
		c0.46,0.542,0.689,1.262,0.689,2.16v0.628h-4.397l-0.018,0.028c0,0.653,0.15,1.184,0.456,1.592c0.306,0.407,0.771,0.61,1.398,0.61
		c0.423,0,0.796-0.058,1.115-0.171c0.319-0.115,0.595-0.272,0.822-0.473l0.49,0.77c-0.246,0.225-0.569,0.415-0.973,0.568
		C206.645,71.773,206.159,71.853,205.592,71.853 M205.395,66.029c-0.437,0-0.798,0.158-1.084,0.477
		c-0.285,0.319-0.459,0.728-0.522,1.224l0.012,0.031h3.1v-0.097c0-0.472-0.121-0.863-0.367-1.173
		C206.286,66.183,205.907,66.029,205.395,66.029 M205.864,62.448h1.462l0.014,0.036l-1.71,1.565h-0.94L205.864,62.448z"/>
	<path clip-path="url(#SVGID_2_)" fill="#020202" d="M212.81,66.262l-0.642-0.035c-0.33,0-0.609,0.074-0.835,0.223
		c-0.228,0.147-0.402,0.357-0.524,0.626v4.65h-1.253v-6.511h1.12l0.12,0.95c0.194-0.335,0.436-0.599,0.722-0.787
		c0.285-0.188,0.614-0.283,0.987-0.283c0.093,0,0.182,0.007,0.266,0.021c0.086,0.015,0.156,0.029,0.21,0.046L212.81,66.262z"/>
	<path clip-path="url(#SVGID_2_)" fill="#020202" d="M215.466,63.548h-1.253v-1.209h1.253V63.548z M215.466,71.727h-1.253v-6.512
		h1.253V71.727z"/>
	<path clip-path="url(#SVGID_2_)" fill="#020202" d="M217.104,68.592c0-1.047,0.236-1.893,0.709-2.534
		c0.473-0.641,1.135-0.963,1.985-0.963c0.415,0,0.782,0.075,1.1,0.227c0.316,0.15,0.588,0.367,0.812,0.653l0.178-0.76h0.96v9.015
		h-1.252v-3.117c-0.22,0.244-0.48,0.43-0.781,0.555c-0.301,0.124-0.645,0.186-1.03,0.186c-0.837,0-1.495-0.288-1.968-0.864
		c-0.476-0.574-0.713-1.332-0.713-2.271V68.592z M218.356,68.718c0,0.657,0.145,1.189,0.429,1.598
		c0.286,0.407,0.726,0.61,1.319,0.61c0.342,0,0.637-0.073,0.88-0.217c0.243-0.145,0.448-0.346,0.612-0.607v-3.286
		c-0.164-0.244-0.369-0.437-0.612-0.578c-0.243-0.139-0.533-0.208-0.867-0.208c-0.598,0-1.04,0.239-1.328,0.717
		c-0.288,0.479-0.433,1.095-0.433,1.846V68.718z"/>
	<path clip-path="url(#SVGID_2_)" fill="#020202" d="M229.152,70.764c-0.217,0.349-0.494,0.617-0.833,0.806
		c-0.338,0.19-0.73,0.283-1.175,0.283c-0.749,0-1.335-0.228-1.754-0.68c-0.42-0.454-0.63-1.159-0.63-2.119v-3.839h1.253v3.852
		c0,0.695,0.106,1.171,0.324,1.432c0.215,0.261,0.553,0.393,1.01,0.393c0.444,0,0.812-0.087,1.103-0.257
		c0.289-0.17,0.509-0.411,0.658-0.726v-4.693h1.251v6.512h-1.124L229.152,70.764z"/>
	<path clip-path="url(#SVGID_2_)" fill="#020202" d="M235.029,71.853c-0.988,0-1.757-0.299-2.31-0.896s-0.829-1.384-0.829-2.358
		v-0.266c0-0.934,0.285-1.707,0.854-2.319c0.57-0.611,1.266-0.918,2.087-0.918c0.92,0,1.609,0.271,2.067,0.812
		c0.46,0.542,0.69,1.262,0.69,2.16v0.628h-4.397l-0.019,0.028c0,0.653,0.152,1.184,0.457,1.592c0.306,0.407,0.771,0.61,1.398,0.61
		c0.424,0,0.795-0.058,1.115-0.171c0.319-0.115,0.594-0.272,0.822-0.473l0.489,0.77c-0.246,0.225-0.569,0.415-0.972,0.568
		C236.081,71.773,235.596,71.853,235.029,71.853 M234.832,66.029c-0.437,0-0.797,0.158-1.084,0.477
		c-0.286,0.319-0.46,0.728-0.523,1.225l0.012,0.03h3.103v-0.097c0-0.473-0.123-0.863-0.369-1.173
		C235.724,66.183,235.345,66.029,234.832,66.029"/>
	<path clip-path="url(#SVGID_2_)" fill="#020202" d="M241.942,68.592c0-1.047,0.235-1.893,0.708-2.534
		c0.472-0.641,1.134-0.963,1.985-0.963c0.402,0,0.76,0.069,1.071,0.211c0.311,0.141,0.576,0.345,0.797,0.613v-3.58h1.252v9.387
		h-0.96l-0.19-0.825c-0.224,0.312-0.502,0.55-0.832,0.711c-0.331,0.16-0.714,0.24-1.15,0.24c-0.839,0-1.495-0.288-1.97-0.864
		c-0.474-0.574-0.711-1.332-0.711-2.271V68.592z M243.194,68.718c0,0.657,0.142,1.186,0.425,1.578
		c0.284,0.397,0.725,0.595,1.321,0.595c0.374,0,0.687-0.081,0.94-0.242c0.256-0.16,0.462-0.385,0.623-0.672v-3.041
		c-0.161-0.269-0.369-0.482-0.626-0.64c-0.256-0.16-0.563-0.238-0.924-0.238c-0.603,0-1.046,0.235-1.331,0.705
		c-0.286,0.468-0.429,1.078-0.429,1.829V68.718z"/>
	<path clip-path="url(#SVGID_2_)" fill="#020202" d="M252.471,71.853c-0.987,0-1.758-0.299-2.31-0.896
		c-0.554-0.598-0.83-1.384-0.83-2.358v-0.266c0-0.934,0.285-1.707,0.855-2.319c0.57-0.611,1.265-0.918,2.086-0.918
		c0.92,0,1.609,0.271,2.069,0.812c0.459,0.542,0.688,1.262,0.688,2.16v0.628h-4.396l-0.019,0.028c0,0.653,0.152,1.184,0.457,1.592
		c0.305,0.407,0.771,0.61,1.398,0.61c0.423,0,0.795-0.058,1.115-0.171c0.319-0.115,0.594-0.272,0.822-0.473l0.489,0.77
		c-0.246,0.225-0.569,0.415-0.972,0.568C253.522,71.773,253.038,71.853,252.471,71.853 M252.272,66.029
		c-0.436,0-0.797,0.158-1.083,0.477c-0.286,0.319-0.46,0.728-0.523,1.225l0.012,0.03h3.102v-0.097c0-0.473-0.123-0.863-0.368-1.173
		C253.164,66.183,252.785,66.029,252.272,66.029"/>
	<path clip-path="url(#SVGID_2_)" fill="#020202" d="M264.771,69.519c0-0.398-0.15-0.73-0.453-0.999
		c-0.3-0.27-0.829-0.499-1.586-0.687c-0.939-0.221-1.676-0.546-2.202-0.977c-0.528-0.428-0.792-0.967-0.792-1.616
		c0-0.687,0.285-1.258,0.852-1.716c0.568-0.458,1.306-0.686,2.211-0.686c0.975,0,1.75,0.261,2.329,0.785
		c0.578,0.524,0.859,1.134,0.843,1.832l-0.021,0.037h-1.194c0-0.498-0.184-0.909-0.549-1.234c-0.367-0.324-0.836-0.487-1.408-0.487
		c-0.583,0-1.032,0.135-1.344,0.403s-0.467,0.617-0.467,1.047c0,0.38,0.171,0.698,0.512,0.952c0.341,0.256,0.895,0.479,1.661,0.672
		c0.933,0.229,1.643,0.566,2.13,1.012c0.486,0.445,0.73,0.994,0.73,1.648c0,0.706-0.294,1.273-0.88,1.702
		c-0.588,0.431-1.354,0.644-2.298,0.644c-0.895,0-1.683-0.236-2.366-0.709c-0.685-0.474-1.016-1.107-0.995-1.901l0.013-0.037h1.194
		c0,0.551,0.22,0.975,0.662,1.273c0.439,0.3,0.938,0.448,1.492,0.448c0.593,0,1.063-0.127,1.407-0.379
		C264.598,70.294,264.771,69.951,264.771,69.519"/>
	<path clip-path="url(#SVGID_2_)" fill="#020202" d="M268.145,71.727v-5.633h-1.074v-0.879h1.074v-0.824
		c0-0.693,0.191-1.231,0.575-1.609c0.383-0.38,0.918-0.569,1.604-0.569c0.144,0,0.289,0.012,0.436,0.033
		c0.146,0.022,0.309,0.052,0.485,0.093l-0.152,0.902c-0.076-0.016-0.169-0.029-0.276-0.042c-0.106-0.011-0.222-0.018-0.34-0.018
		c-0.364,0-0.636,0.104-0.814,0.31c-0.177,0.206-0.266,0.506-0.266,0.899v0.824h1.246v0.879h-1.246v5.633H268.145z"/>
	<path clip-path="url(#SVGID_2_)" fill="#020202" d="M276.132,71.727c-0.042-0.197-0.076-0.371-0.101-0.521
		c-0.021-0.151-0.035-0.302-0.04-0.455c-0.231,0.313-0.536,0.574-0.912,0.784c-0.374,0.213-0.778,0.317-1.209,0.317
		c-0.716,0-1.261-0.173-1.636-0.521c-0.375-0.347-0.564-0.825-0.564-1.436c0-0.621,0.267-1.107,0.799-1.46
		c0.531-0.35,1.253-0.525,2.164-0.525h1.358v-0.645c0-0.38-0.121-0.682-0.368-0.904c-0.245-0.223-0.593-0.333-1.042-0.333
		c-0.406,0-0.734,0.095-0.985,0.287c-0.248,0.191-0.375,0.423-0.375,0.692l-1.188,0.011l-0.013-0.034
		c-0.03-0.474,0.205-0.908,0.702-1.301s1.142-0.59,1.929-0.59c0.779,0,1.406,0.188,1.88,0.562c0.475,0.375,0.712,0.916,0.712,1.622
		v3.135c0,0.232,0.014,0.458,0.04,0.674c0.024,0.218,0.069,0.43,0.139,0.639H276.132z M274.054,70.859
		c0.454,0,0.861-0.11,1.228-0.331c0.364-0.22,0.601-0.473,0.71-0.758v-1.06h-1.404c-0.504,0-0.907,0.12-1.21,0.362
		c-0.304,0.24-0.455,0.522-0.455,0.847c0,0.29,0.097,0.518,0.287,0.687C273.4,70.775,273.68,70.859,274.054,70.859"/>
	<polygon clip-path="url(#SVGID_2_)" fill="#020202" points="281.393,67.616 282.854,65.215 284.314,65.215 282.086,68.433 
		284.379,71.727 282.943,71.727 281.418,69.265 279.894,71.727 278.443,71.727 280.737,68.433 278.508,65.215 279.951,65.215 	"/>
	
		<rect x="83.912" y="49.07" transform="matrix(0.994 -0.1098 0.1098 0.994 -8.1326 13.1427)" clip-path="url(#SVGID_2_)" fill="#D2D3D2" width="62.65" height="62.65"/>
	
		<rect x="59.945" y="19.758" transform="matrix(0.9871 0.1599 -0.1599 0.9871 10.7601 -15.2037)" clip-path="url(#SVGID_2_)" fill="#CA242C" width="79.863" height="79.037"/>
	
		<rect x="59.945" y="19.758" transform="matrix(0.9871 0.1599 -0.1599 0.9871 10.7601 -15.2037)" clip-path="url(#SVGID_2_)" fill="none" stroke="#FFFFFF" stroke-width="2" stroke-miterlimit="10" width="79.863" height="79.037"/>
	<path clip-path="url(#SVGID_2_)" fill="#FFFFFF" d="M108.545,68.084c-1.005,1.945-3.396,2.707-5.339,1.7
		c-1.944-1.004-2.706-3.395-1.699-5.339c1.003-1.943,3.395-2.706,5.339-1.7C108.789,63.751,109.549,66.142,108.545,68.084"/>
	<path clip-path="url(#SVGID_2_)" fill="#FFFFFF" d="M115.248,73.586c-0.934,1.807-3.157,2.515-4.965,1.581
		c-1.807-0.935-2.516-3.159-1.58-4.965c0.934-1.809,3.157-2.517,4.965-1.582C115.475,69.556,116.183,71.778,115.248,73.586"/>
	<path clip-path="url(#SVGID_2_)" fill="#FFFFFF" d="M103.691,79.896c-0.936,1.807-3.158,2.516-4.965,1.581
		c-1.809-0.936-2.516-3.156-1.582-4.965c0.934-1.808,3.158-2.516,4.966-1.58C103.918,75.865,104.625,78.087,103.691,79.896"/>
	<path clip-path="url(#SVGID_2_)" fill="#FFFFFF" d="M120.721,89.639c-0.652,1.265-2.205,1.758-3.466,1.104
		c-1.263-0.653-1.756-2.204-1.104-3.466c0.653-1.261,2.204-1.756,3.466-1.103C120.879,86.825,121.373,88.378,120.721,89.639"/>
	<path clip-path="url(#SVGID_2_)" fill="#FFFFFF" d="M132.301,90.855c-0.653,1.26-2.205,1.753-3.467,1.103
		c-1.262-0.652-1.756-2.205-1.103-3.466c0.651-1.262,2.203-1.757,3.466-1.105C132.459,88.04,132.953,89.592,132.301,90.855"/>
	<path clip-path="url(#SVGID_2_)" fill="#FFFFFF" d="M121.461,80.943c-0.865,1.671-2.92,2.326-4.591,1.463
		c-1.672-0.864-2.325-2.919-1.462-4.591c0.865-1.672,2.918-2.324,4.592-1.461C121.67,77.219,122.324,79.272,121.461,80.943"/>
	<path clip-path="url(#SVGID_2_)" fill="#FFFFFF" d="M111.246,84.427c-0.865,1.673-2.92,2.328-4.59,1.462
		c-1.672-0.864-2.326-2.919-1.463-4.589c0.865-1.67,2.92-2.327,4.591-1.462C111.455,80.701,112.109,82.757,111.246,84.427"/>
	<path clip-path="url(#SVGID_2_)" fill="#FFFFFF" d="M97.607,70.021c-1.006,1.943-3.396,2.703-5.34,1.7
		c-1.943-1.007-2.706-3.395-1.7-5.34c1.005-1.943,3.396-2.705,5.339-1.7C97.85,65.686,98.611,68.076,97.607,70.021"/>
	<path clip-path="url(#SVGID_2_)" fill="#FFFFFF" d="M95.223,81.441c-1.006,1.945-3.397,2.705-5.34,1.7
		c-1.945-1.004-2.704-3.396-1.701-5.337c1.006-1.946,3.396-2.706,5.34-1.701C95.466,77.109,96.227,79.499,95.223,81.441"/>
	<path clip-path="url(#SVGID_2_)" fill="#FFFFFF" d="M88.286,74.121c-1.005,1.945-3.396,2.705-5.34,1.701
		c-1.943-1.007-2.704-3.396-1.7-5.34c1.006-1.943,3.396-2.705,5.34-1.7C88.531,69.787,89.291,72.179,88.286,74.121"/>
	<path clip-path="url(#SVGID_2_)" fill="#FFFFFF" d="M77.521,77.477c-0.734,1.421-2.479,1.978-3.898,1.243s-1.977-2.479-1.241-3.9
		c0.732-1.419,2.479-1.975,3.898-1.24C77.7,74.312,78.256,76.059,77.521,77.477"/>
	<path clip-path="url(#SVGID_2_)" fill="#FFFFFF" d="M71.996,70.161c-0.628,1.216-2.122,1.689-3.337,1.062
		c-1.216-0.629-1.692-2.122-1.062-3.339c0.628-1.215,2.122-1.688,3.337-1.062C72.148,67.451,72.624,68.945,71.996,70.161"/>
	<path clip-path="url(#SVGID_2_)" fill="#FFFFFF" d="M64.071,78.583c-0.629,1.217-2.123,1.69-3.338,1.062
		c-1.214-0.627-1.691-2.121-1.062-3.337c0.628-1.215,2.123-1.69,3.337-1.062C64.223,75.875,64.699,77.368,64.071,78.583"/>
	
		<rect x="118.951" y="88.777" transform="matrix(0.9969 0.0792 -0.0792 0.9969 7.4304 -9.5439)" clip-path="url(#SVGID_2_)" fill="#FFFFFF" width="10.289" height="0.347"/>
	
		<rect x="113.518" y="84.254" transform="matrix(0.0535 0.9986 -0.9986 0.0535 196.6247 -38.5765)" clip-path="url(#SVGID_2_)" fill="#FFFFFF" width="10.286" height="0.346"/>
	
		<rect x="110.464" y="75.818" transform="matrix(0.6101 0.7923 -0.7923 0.6101 105.2889 -61.9695)" clip-path="url(#SVGID_2_)" fill="#FFFFFF" width="10.288" height="0.348"/>
	
		<rect x="104.178" y="68.831" transform="matrix(0.8562 0.5166 -0.5166 0.8562 51.3636 -46.5539)" clip-path="url(#SVGID_2_)" fill="#FFFFFF" width="10.288" height="0.347"/>
	
		<rect x="91.216" y="79.064" transform="matrix(0.9753 -0.221 0.221 0.9753 -15.1283 23.2535)" clip-path="url(#SVGID_2_)" fill="#FFFFFF" width="10.288" height="0.347"/>
	
		<rect x="94.581" y="67.108" transform="matrix(0.9753 -0.2209 0.2209 0.9753 -12.3971 23.6866)" clip-path="url(#SVGID_2_)" fill="#FFFFFF" width="10.289" height="0.348"/>
	
		<rect x="99.458" y="80.751" transform="matrix(0.8525 0.5228 -0.5228 0.8525 57.7411 -42.7463)" clip-path="url(#SVGID_2_)" fill="#FFFFFF" width="10.289" height="0.346"/>
	<polygon clip-path="url(#SVGID_2_)" fill="#FFFFFF" points="108.264,82.778 112.039,73.206 111.715,73.081 107.939,82.653 	"/>
	
		<rect x="97.015" y="73.148" transform="matrix(-0.3669 0.9303 -0.9303 -0.3669 207.8497 5.1918)" clip-path="url(#SVGID_2_)" fill="#FFFFFF" width="10.287" height="0.348"/>
	
		<rect x="87.352" y="74.56" transform="matrix(-0.367 0.9302 -0.9302 -0.367 195.9645 16.1218)" clip-path="url(#SVGID_2_)" fill="#FFFFFF" width="10.289" height="0.349"/>
	
		<rect x="84.201" y="70.387" transform="matrix(-0.9041 0.4274 -0.4274 -0.9041 200.2753 96.1705)" clip-path="url(#SVGID_2_)" fill="#FFFFFF" width="10.288" height="0.346"/>
	
		<rect x="73.792" y="74.778" transform="matrix(-0.9041 0.4273 -0.4273 -0.9041 182.3315 108.984)" clip-path="url(#SVGID_2_)" fill="#FFFFFF" width="10.288" height="0.347"/>
	
		<rect x="66.848" y="72.201" transform="matrix(-0.5979 -0.8015 0.8015 -0.5979 57.0291 173.3549)" clip-path="url(#SVGID_2_)" fill="#FFFFFF" width="10.289" height="0.347"/>
	
		<rect x="60.325" y="73.285" transform="matrix(0.7064 -0.7078 0.7078 0.7064 -32.7732 67.9042)" clip-path="url(#SVGID_2_)" fill="#FFFFFF" width="10.287" height="0.348"/>
</g>
</svg>
