<?xml version="1.0" encoding="utf-8"?>
<!-- Generator: Adobe Illustrator 19.0.0, SVG Export Plug-In . SVG Version: 6.00 Build 0)  -->
<svg version="1.1" id="Layer_1" xmlns="http://www.w3.org/2000/svg" xmlns:xlink="http://www.w3.org/1999/xlink" x="0px" y="0px"
	 viewBox="0 0 442 412" style="enable-background:new 0 0 442 412;" xml:space="preserve">
<style type="text/css">
	.st0{fill:#1982B6;}
</style>
<g id="layer1" transform="translate(574.40607,537.45725)">
	<g id="g2522" transform="translate(35.433078,35.385778)">
		<path id="_32888512" class="st0" d="M-600.5-306.3h42.5c8.5,0,15.1-0.8,20.1-2.4c6.7-2.2,12.1-5.2,16-8.9
			c5.2-5.2,9.1-11.8,11.9-19.9c2.4-6.6,3.5-14.6,3.5-23.8c0-10.5-1.3-19.4-3.6-26.5c-2.5-7.2-6.1-13.3-10.8-18.2
			c-4.7-5-10.2-8.5-16.8-10.4c-5-1.4-12.1-2.2-21.3-2.2h-41.4V-306.3L-600.5-306.3z M-567.6-399.6c9.1,0,15.4,0.3,18.5,1.1
			c4.2,0.9,7.7,2.7,10.5,5.3c2.7,2.5,4.9,6.1,6.3,10.8c1.6,4.5,2.4,11.3,2.4,19.9c0,8.8-0.8,15.5-2.4,20.5c-1.4,5-3.4,8.6-5.8,10.8
			c-2.5,2.2-5.5,3.8-9.1,4.7c-2.8,0.8-7.4,1.1-13.6,1.1l-16.9,0v-74.3H-567.6L-567.6-399.6z"/>
		<path id="_62323816" class="st0" d="M-437.4-418.6h-24L-505-306.3h24l9.4-25.6h45l9.7,25.6h24.5L-437.4-418.6z M-464.7-350.8
			l15.2-41.6l15.5,41.6H-464.7L-464.7-350.8z"/>
		<path id="_71917560" class="st0" d="M-324.2-418.6h-24l-43.6,112.3h24l9.4-25.6h45l9.7,25.6h24.5L-324.2-418.6z M-351.5-350.8
			l15.2-41.6l15.5,41.6H-351.5L-351.5-350.8z"/>
		<path id="_71899344" class="st0" d="M-267.1-306.3h42.5c8.5,0,15.1-0.8,20.1-2.4c6.7-2.2,12.1-5.2,16-8.9
			c5.2-5.2,9.1-11.8,11.9-19.9c2.4-6.6,3.5-14.6,3.5-23.8c0-10.5-1.3-19.4-3.6-26.5c-2.5-7.2-6.1-13.3-10.8-18.2
			c-4.7-5-10.2-8.5-16.8-10.4c-5-1.4-12.1-2.2-21.3-2.2h-41.4V-306.3L-267.1-306.3z M-234.2-399.6c9.1,0,15.4,0.3,18.5,1.1
			c4.2,0.9,7.7,2.7,10.5,5.3c2.7,2.5,4.9,6.1,6.3,10.8c1.6,4.5,2.4,11.3,2.4,19.9c0,8.8-0.8,15.5-2.4,20.5c-1.4,5-3.4,8.6-5.8,10.8
			c-2.5,2.2-5.5,3.8-9.1,4.7c-2.8,0.8-7.4,1.1-13.6,1.1l-16.9,0v-74.3H-234.2L-234.2-399.6z"/>
	</g>
</g>
</svg>
