<?xml version="1.0" encoding="utf-8"?>
<!-- Generator: Adobe Illustrator 19.0.0, SVG Export Plug-In . SVG Version: 6.00 Build 0)  -->
<svg version="1.1" id="Calque_1" xmlns="http://www.w3.org/2000/svg" xmlns:xlink="http://www.w3.org/1999/xlink" x="0px" y="0px"
	 viewBox="-505.2 78.1 1066.5 637.8" style="enable-background:new -505.2 78.1 1066.5 637.8;" xml:space="preserve">
<style type="text/css">
	.st0{fill:#3C56A5;}
	.st1{fill:#2EC4F3;}
	.st2{fill:#F4EA1E;}
	.st3{fill:#FCCA33;}
	.st4{fill:#0067A5;}
	.st5{fill:#FFCC09;}
	.st6{fill:#3D57A6;}
	.st7{font-family:'ArialMT';}
	.st8{font-size:243.8739px;}
	.st9{fill:#FDC70A;}
	.st10{fill:#231F20;}
	.st11{font-size:165.0817px;}
</style>
<g id="XMLID_6_">
	<g id="XMLID_3_">
		<g>
			<path class="st0" d="M-478.5,501.1c16.5-3.9,33.1-6.9,49.8-9.9c19.7-3.5,39.5-6.7,59.4-9.7c6-0.9,11.9-1.7,17.9-2.6
				c7.2-1,10.9-1.5,17.6-2.4c14.3-1.9,28.6-3.6,43-5.2c70.6-8,141.5-13.2,212.5-15.8c90.9-3.3,182-2.4,272.9,2.7
				c106.1,6,211.8,17.7,316.6,35.6c13.5,2.3,27,4.7,40.5,7.2c5,0.9,10.1-1.4,11.5-6.5c1.3-4.6-1.5-10.6-6.5-11.5
				c-107.1-19.9-215.4-33.6-324-41.1c-92.9-6.4-186.2-8.4-279.3-6c-74.5,1.9-148.9,6.6-223.1,14.4c-50.5,5.3-100.8,12-150.8,20.5
				c-14.3,2.5-28.6,5.1-42.8,7.9c-6.3,1.3-12.9,2.3-19.1,4c-0.3,0.1-0.5,0.1-0.8,0.2C-495.2,485.8-490.3,503.9-478.5,501.1
				L-478.5,501.1z"/>
		</g>
	</g>
	<g id="XMLID_1_">
		<g>
			<path class="st1" d="M-491.5,414.6c16.5-4.2,33.3-7.4,50-10.7c19.7-3.8,39.5-7.2,59.3-10.4c27.4-4.3,52.5-7.8,79.4-11.1
				c71.1-8.6,142.6-14.2,214.1-17c91.8-3.6,183.7-2.6,275.4,2.9c107,6.4,213.6,19.1,319,38.3c13.9,2.5,27.8,5.2,41.7,7.9
				c11.8,2.3,16.8-15.7,5-18.1c-108.2-21.4-217.7-36.2-327.6-44.3c-93.8-6.9-187.9-9.1-281.9-6.5c-74.9,2.1-149.7,7.1-224.2,15.5
				c-51,5.7-101.8,12.9-152.3,22.2c-20.6,3.8-42,7-62.2,12.9c-0.3,0.1-0.6,0.1-0.8,0.2C-508.2,399.5-503.2,417.6-491.5,414.6
				L-491.5,414.6z"/>
		</g>
	</g>
	<g id="XMLID_7_">
		<g>
			<path class="st2" d="M119.6,92.3c3.1,9.2,5.7,18.7,8.2,28.1c6.9,26,12.6,52.3,17.3,78.8c1.6,9,3.1,17.9,4.5,26.9
				c0.7,4.7,1.4,9.4,2.1,14.2c0.8,5.7,1.1,7.9,1.8,13c2.8,21.8,5.1,43.7,6.7,65.7c4,52.2,4.7,104.6,2.2,156.9
				c-2.9,60.9-10.2,121.5-22,181.4c-1.6,8-3.3,16-5,24c-1.3,5.9,1.8,12.2,7.9,13.8c5.6,1.5,12.5-1.9,13.8-7.9
				c13.5-62,22.3-125,26.5-188.3c3.5-53.6,3.6-107.3,0.4-160.9c-2.6-43.5-7.5-86.8-14.6-129.8c-4.8-28.9-10.6-57.6-17.9-86
				c-3-11.8-6-23.9-10.1-35.4c-0.1-0.1-0.1-0.3-0.2-0.4c-2-5.7-7.7-9.5-13.8-7.9C121.9,80,117.6,86.6,119.6,92.3L119.6,92.3z"/>
		</g>
	</g>
	<g id="XMLID_8_">
		<g>
			<path class="st3" d="M-20.3,96.1c3.2,9.5,5.8,19.3,8.3,29c6.9,26.7,12.6,53.7,17.4,80.9c1.6,9.1,3.1,18.3,4.5,27.5
				c1.6,10.6,2.8,18.9,3.9,28.3c2.8,22.5,5.1,45.1,6.8,67.7c3.9,53.3,4.7,106.8,2.3,160.2C20,552.5,12.8,615,1,676.7
				c-1.6,8.4-3.3,16.7-5,25c-1.3,5.9,1.7,12.2,7.9,13.8c5.6,1.5,12.6-1.9,13.8-7.9C31.1,644,39.9,579.4,44,514.5
				c3.5-55.2,3.6-110.6,0.3-165.9c-2.7-44.7-7.6-89.4-14.8-133.6c-4.8-29.6-10.6-59-17.9-88.1c-3-12.1-6-24.5-10.1-36.3
				c-0.1-0.2-0.1-0.3-0.2-0.5c-1.9-5.8-7.8-9.5-13.8-7.9C-18.1,83.8-22.3,90.3-20.3,96.1L-20.3,96.1z"/>
		</g>
	</g>
	<g id="XMLID_4_">
		<g>
			<path class="st4" d="M-455.5,568.6c15.8-3.3,31.7-5.9,47.6-8.4c8.6-1.4,17.2-2.7,25.7-3.9c4.9-0.7,9.9-1.4,14.8-2.1
				c1.2-0.2,2.5-0.3,3.7-0.5c2.8-0.4-0.7,0.1,2.1-0.3c2.9-0.4,5.7-0.8,8.6-1.1c25.5-3.3,51-6.2,76.5-8.7c68.6-6.8,137.4-11,206.3-13
				c88.6-2.6,177.2-1.5,265.7,3.2c103.9,5.5,207.6,15.9,310.5,31.5c13.8,2.1,27.7,4.3,41.5,6.6c5,0.8,10.1-1.3,11.5-6.5
				c1.2-4.5-1.5-10.7-6.5-11.5C446.7,536.4,340,524.2,233,517.3c-91.1-5.9-182.5-7.9-273.8-6.1c-71.7,1.4-143.3,5.2-214.8,11.7
				c-48.5,4.4-97,10-145.2,17.3c-13.7,2.1-27.4,4.3-41.1,6.7c-5.9,1.1-12.1,1.9-17.9,3.4c-0.3,0.1-0.5,0.1-0.8,0.2
				C-472.3,553-467.3,571.1-455.5,568.6L-455.5,568.6z"/>
		</g>
	</g>
	<g id="XMLID_9_">
		<g>
			<path class="st5" d="M-156.2,95.6c3.6,9.3,6.5,18.9,9.3,28.5c7.8,26.2,14.2,52.9,19.5,79.8c8.3,41.7,13.5,80.3,16.9,122.6
				c4.3,53.6,5,107.4,2,161.1c-3.5,63.5-12.2,126.7-25.8,188.8c-1.8,8.3-3.7,16.6-5.7,24.8c-3.4,14.1,18.3,20.1,21.7,6
				c15.4-64.1,25.7-129.5,30.7-195.3c4.2-55.5,4.5-111.3,0.9-166.9c-2.9-44.3-8.2-88.5-16.2-132.1c-5.4-29.3-11.9-58.4-20.1-87
				c-3.4-12-6.9-24.1-11.4-35.7c-0.1-0.2-0.1-0.3-0.2-0.5c-2.2-5.7-7.6-9.6-13.8-7.9C-153.7,83.2-158.4,89.9-156.2,95.6L-156.2,95.6
				z"/>
		</g>
	</g>
	<g id="XMLID_2_">
		<text transform="matrix(1.4776 0 0 1 -412 438.3101)"><tspan x="0" y="0" class="st6 st7 st8">iss</tspan><tspan x="298.1" y="0" class="st9 st7 st8">@</tspan><tspan x="545.6" y="0" class="st6 st7 st8">t</tspan></text>
	</g>
	<text id="XMLID_5_" transform="matrix(1.7517 0 0 1 -403.9995 588.9683)" class="st10 st7 st11">sousse</text>
</g>
</svg>
