<?xml version="1.0" encoding="utf-8"?>
<!-- Generator: Adobe Illustrator 19.0.0, SVG Export Plug-In . SVG Version: 6.00 Build 0)  -->
<svg version="1.1" id="Calque_1" xmlns="http://www.w3.org/2000/svg" xmlns:xlink="http://www.w3.org/1999/xlink" x="0px" y="0px"
	 viewBox="227 78.2 1066.5 637.8" style="enable-background:new 227 78.2 1066.5 637.8;" xml:space="preserve">
<style type="text/css">
	.st0{fill:#4E99F2;}
	.st1{fill:#2EC4F3;}
	.st2{fill:#F4EA1E;stroke:#FDC70A;stroke-miterlimit:10;}
	.st3{fill:#FCCA33;stroke:#FDC70A;stroke-miterlimit:10;}
	.st4{fill:#0067A5;}
	.st5{fill:#FFCC09;stroke:#FDC70A;stroke-miterlimit:10;}
	.st6{enable-background:new    ;}
	.st7{fill:#3D57A6;}
	.st8{fill:#FDC70A;stroke:#FDC70A;stroke-width:4;stroke-miterlimit:10;}
	.st9{fill:#231F20;}
</style>
<g id="XMLID_6_">
	<g id="XMLID_3_">
		<g>
			<g>
				<g>
					<path class="st0" d="M251.6,440.2c16.5-3.9,33.1-6.9,49.8-9.9c19.7-3.5,39.5-6.7,59.4-9.7c6-0.9,11.9-1.7,17.9-2.6
						c7.2-1,10.9-1.5,17.6-2.4c14.3-1.9,28.6-3.6,43-5.2c70.6-8,141.5-13.2,212.5-15.8c90.9-3.3,182-2.4,272.9,2.7
						c106.1,6,211.8,17.7,316.6,35.6c13.5,2.3,27,4.7,40.5,7.2c5,0.9,10.1-1.4,11.5-6.5c1.3-4.6-1.5-10.6-6.5-11.5
						c-107.1-19.9-215.4-33.6-324-41.1c-92.9-6.4-186.2-8.4-279.3-6c-74.5,1.9-148.9,6.6-223.1,14.4c-50.5,5.3-100.8,12-150.8,20.5
						c-14.3,2.5-28.6,5.1-42.8,7.9c-6.3,1.3-12.9,2.3-19.1,4c-0.3,0.1-0.5,0.1-0.8,0.2C234.9,424.9,239.8,443,251.6,440.2
						L251.6,440.2z"/>
				</g>
			</g>
		</g>
	</g>
	<g id="XMLID_1_">
		<g>
			<g>
				<path class="st1" d="M238.6,367.7c16.5-4.2,33.3-7.4,50-10.7c19.7-3.8,39.5-7.2,59.3-10.4c27.4-4.3,52.5-7.8,79.4-11.1
					c71.1-8.6,142.6-14.2,214.1-17c91.8-3.6,183.7-2.6,275.4,2.9c107,6.4,213.6,19.1,319,38.3c13.9,2.5,27.8,5.2,41.7,7.9
					c11.8,2.3,16.8-15.7,5-18.1c-108.2-21.4-217.7-36.2-327.6-44.3c-93.8-6.9-187.9-9.1-281.9-6.5c-74.9,2.1-149.7,7.1-224.2,15.5
					c-51,5.7-101.8,12.9-152.3,22.2c-20.6,3.8-42,7-62.2,12.9c-0.3,0.1-0.6,0.1-0.8,0.2C221.9,352.6,226.9,370.7,238.6,367.7
					L238.6,367.7z"/>
			</g>
		</g>
	</g>
	<g id="XMLID_7_">
		<g>
			<g>
				<path class="st2" d="M835.4,92.4c2.6,9.2,4.8,18.7,6.9,28.1c5.8,26,10.6,52.3,14.6,78.8c1.4,9,2.6,17.9,3.8,26.9
					c0.6,4.7,1.2,9.4,1.8,14.2c0.7,5.7,0.9,7.9,1.5,13c2.4,21.8,4.3,43.7,5.7,65.7c3.4,52.2,4,104.6,1.9,156.9
					c-2.4,60.9-8.6,121.5-18.6,181.4c-1.4,8-2.8,16-4.2,24c-1.1,5.9,1.5,12.2,6.7,13.8c4.7,1.5,10.6-1.9,11.7-7.9
					c11.4-62,18.8-125,22.4-188.3c3-53.6,3-107.3,0.3-160.9c-2.2-43.5-6.3-86.8-12.3-129.8c-4.1-28.9-8.9-57.6-15.1-86
					c-2.5-11.8-5.1-23.9-8.5-35.4c-0.1-0.1-0.1-0.3-0.2-0.4c-1.7-5.7-6.5-9.5-11.7-7.9C837.3,80.1,833.7,86.7,835.4,92.4L835.4,92.4
					z"/>
			</g>
		</g>
	</g>
	<g id="XMLID_8_">
		<g>
			<g>
				<path class="st3" d="M692.9,96.2c2.7,9.5,4.9,19.3,7,29c5.8,26.7,10.6,53.7,14.7,80.9c1.4,9.1,2.6,18.3,3.8,27.5
					c1.4,10.6,2.4,18.9,3.3,28.3c2.4,22.5,4.3,45.1,5.7,67.7c3.3,53.3,4,106.8,1.9,160.2c-2.4,62.8-8.5,125.3-18.5,187
					c-1.4,8.4-2.8,16.7-4.2,25c-1.1,5.9,1.4,12.2,6.7,13.8c4.7,1.5,10.6-1.9,11.7-7.9c11.3-63.6,18.7-128.2,22.2-193.1
					c3-55.2,3-110.6,0.3-165.9c-2.3-44.7-6.4-89.4-12.5-133.6c-4.1-29.6-8.9-59-15.1-88.1c-2.5-12.1-5.1-24.5-8.5-36.3
					c-0.1-0.2-0.1-0.3-0.2-0.5c-1.6-5.8-6.6-9.5-11.7-7.9C694.8,83.9,691.3,90.4,692.9,96.2L692.9,96.2z"/>
			</g>
		</g>
	</g>
	<g id="XMLID_4_">
		<g>
			<g>
				<path class="st4" d="M274.6,529.7c15.8-3.3,31.7-5.9,47.6-8.4c8.6-1.4,17.2-2.7,25.7-3.9c4.9-0.7,9.9-1.4,14.8-2.1
					c1.2-0.2,2.5-0.3,3.7-0.5c2.8-0.4-0.7,0.1,2.1-0.3c2.9-0.4,5.7-0.8,8.6-1.1c25.5-3.3,51-6.2,76.5-8.7
					c68.6-6.8,137.4-11,206.3-13c88.6-2.6,177.2-1.5,265.7,3.2c103.9,5.5,207.6,15.9,310.5,31.5c13.8,2.1,27.7,4.3,41.5,6.6
					c5,0.8,10.1-1.3,11.5-6.5c1.2-4.5-1.5-10.7-6.5-11.5c-105.8-17.5-212.5-29.7-319.5-36.6c-91.1-5.9-182.5-7.9-273.8-6.1
					c-71.7,1.4-143.3,5.2-214.8,11.7c-48.5,4.4-97,10-145.2,17.3c-13.7,2.1-27.4,4.3-41.1,6.7c-5.9,1.1-12.1,1.9-17.9,3.4
					c-0.3,0.1-0.5,0.1-0.8,0.2C257.8,514.1,262.8,532.2,274.6,529.7L274.6,529.7z"/>
			</g>
		</g>
	</g>
	<g id="XMLID_9_">
		<g>
			<g>
				<path class="st5" d="M538.8,95.7c3,9.3,5.5,18.9,7.9,28.5c6.6,26.2,12,52.9,16.5,79.8c7,41.7,11.4,80.3,14.3,122.6
					c3.6,53.6,4.2,107.4,1.7,161.1c-3,63.5-10.3,126.7-21.8,188.8c-1.5,8.3-3.1,16.6-4.8,24.8c-2.9,14.1,15.4,20.1,18.3,6
					c13-64.1,21.7-129.5,25.9-195.3c3.5-55.5,3.8-111.3,0.8-166.9c-2.4-44.3-6.9-88.5-13.7-132.1c-4.6-29.3-10-58.4-17-87
					c-2.9-12-5.8-24.1-9.6-35.7c-0.1-0.2-0.1-0.3-0.2-0.5c-1.9-5.7-6.4-9.6-11.7-7.9C540.9,83.3,536.9,90,538.8,95.7L538.8,95.7z"/>
			</g>
		</g>
	</g>
	<g id="XMLID_2_">
		<g class="st6">
			<path class="st7" d="M362,259.9v-26h33.4v26H362z M362,418V284.6h33.4V418H362z"/>
			<path class="st7" d="M422.9,378.2l33-3.5c1.9,9,7,15.8,15.5,20.6c8.5,4.8,20.3,7.2,35.6,7.2c15.3,0,26.7-2.1,34.2-6.3
				c7.4-4.2,11.1-9.2,11.1-14.9c0-5.1-3.3-9.1-9.8-12.1c-4.6-2-16-4.6-34.2-7.7c-24.5-4.2-41.5-7.8-51-10.9
				c-9.5-3.1-16.6-7.3-21.5-12.7c-4.9-5.4-7.3-11.4-7.3-17.9c0-5.9,2-11.5,6-16.5c4-5.1,9.5-9.3,16.4-12.6
				c5.2-2.6,12.3-4.8,21.3-6.6c9-1.8,18.6-2.7,28.9-2.7c15.5,0,29.1,1.5,40.8,4.5c11.7,3,20.3,7.1,25.9,12.3
				c5.6,5.2,9.4,12,11.5,20.7l-32.7,3c-1.5-6.9-5.8-12.2-12.9-16.1c-7.1-3.9-17.2-5.8-30.2-5.8c-15.3,0-26.3,1.7-32.9,5.2
				c-6.6,3.4-9.8,7.5-9.8,12.1c0,2.9,1.4,5.6,4.1,7.9c2.7,2.4,7,4.4,12.8,6c3.3,0.8,13.2,2.8,29.5,5.8c23.6,4.3,40.1,7.8,49.5,10.5
				c9.3,2.7,16.7,6.7,22,11.9c5.3,5.2,8,11.6,8,19.3c0,7.5-3.2,14.6-9.7,21.3c-6.5,6.7-15.9,11.8-28.1,15.5
				c-12.3,3.6-26.1,5.5-41.6,5.5c-25.6,0-45.1-3.6-58.6-10.8C435.2,403,426.6,392.4,422.9,378.2z"/>
			<path class="st7" d="M603,378.2l33-3.5c1.9,9,7,15.8,15.5,20.6c8.5,4.8,20.3,7.2,35.6,7.2c15.3,0,26.7-2.1,34.2-6.3
				c7.4-4.2,11.1-9.2,11.1-14.9c0-5.1-3.3-9.1-9.8-12.1c-4.6-2-16-4.6-34.2-7.7c-24.5-4.2-41.5-7.8-51-10.9
				c-9.5-3.1-16.6-7.3-21.5-12.7c-4.9-5.4-7.3-11.4-7.3-17.9c0-5.9,2-11.5,6-16.5c4-5.1,9.5-9.3,16.4-12.6
				c5.2-2.6,12.3-4.8,21.3-6.6c9-1.8,18.6-2.7,28.9-2.7c15.5,0,29.1,1.5,40.8,4.5c11.7,3,20.3,7.1,25.9,12.3
				c5.6,5.2,9.4,12,11.5,20.7l-32.7,3c-1.5-6.9-5.8-12.2-12.9-16.1c-7.1-3.9-17.2-5.8-30.2-5.8c-15.3,0-26.3,1.7-32.9,5.2
				c-6.6,3.4-9.8,7.5-9.8,12.1c0,2.9,1.4,5.6,4.1,7.9c2.7,2.4,7,4.4,12.8,6c3.3,0.8,13.2,2.8,29.5,5.8c23.6,4.3,40.1,7.8,49.5,10.5
				c9.3,2.7,16.7,6.7,22,11.9c5.3,5.2,8,11.6,8,19.3c0,7.5-3.2,14.6-9.7,21.3c-6.5,6.7-15.9,11.8-28.1,15.5
				c-12.3,3.6-26.1,5.5-41.6,5.5c-25.6,0-45.1-3.6-58.6-10.8C615.3,403,606.7,392.4,603,378.2z"/>
		</g>
		<g class="st6">
			<path class="st8" d="M967.5,387.2c-7.8,6.1-16.6,11-26.2,14.7c-9.7,3.7-19.4,5.6-29.1,5.6c-10.7,0-21.1-2.1-31.2-6.3
				c-10.1-4.2-18.3-10.7-24.6-19.5c-6.3-8.8-9.5-18.4-9.5-28.9c0-12.9,4.9-25.9,14.7-38.9c9.8-13,22-22.7,36.5-29.2
				c14.5-6.5,28.7-9.8,42.4-9.8c10.5,0,20.4,1.9,29.9,5.6c9.5,3.7,17.7,9.3,24.5,16.9l6.1-18.9h32.3l-26,81.9
				c-3.6,11.4-5.4,17.7-5.4,18.9c0,2.2,1.2,4.1,3.7,5.7c2.5,1.6,5.4,2.4,8.9,2.4c6.4,0,14.7-2.5,25.1-7.4
				c13.7-6.5,24.6-15.2,32.6-26.2c8-10.9,12-22.2,12-33.9c0-13.6-5.1-26.3-15.4-38.1c-10.3-11.8-25.6-21.2-46-28.3
				c-20.4-7.1-42.9-10.6-67.6-10.6c-28.1,0-53.8,4.5-77.1,13.4c-23.3,8.9-41.3,21.7-54.1,38.3c-12.8,16.6-19.2,34.5-19.2,53.5
				c0,19.9,6.4,37.1,19.2,51.5c12.8,14.4,31.3,25,55.6,31.9c24.2,6.9,51.1,10.3,80.5,10.3c31.5,0,57.9-3.6,79.2-10.7
				c21.3-7.2,37.2-15.9,47.8-26.1h32.7c-6.1,8.5-16.7,17.3-31.6,26.1c-14.9,8.9-32.7,15.9-53.2,21.1c-20.6,5.2-45.3,7.8-74.3,7.8
				c-26.7,0-51.3-2.3-73.9-7c-22.5-4.6-41.8-11.6-57.6-20.9c-15.9-9.3-27.8-20-35.9-32.2c-10.1-15.4-15.2-32-15.2-49.8
				c0-19.9,6-38.8,18-56.8c14.7-22.1,35.5-38.9,62.5-50.7c27-11.7,59.7-17.6,98.2-17.6c29.8,0,56.6,4.1,80.4,12.4
				c23.8,8.3,42.5,20.6,56.2,36.9c11.7,14.1,17.5,29.4,17.5,45.9c0,23.6-12.3,44.6-36.8,62.9c-21.9,16.4-45.8,24.7-71.8,24.7
				c-8.3,0-15-0.9-20.1-2.6c-5.1-1.7-8.9-4.2-11.3-7.3C969.4,395.7,968.2,392.2,967.5,387.2z M880.2,354.1c0,11.2,3.9,19.8,11.7,26
				c7.8,6.2,16.8,9.3,26.9,9.3c6.7,0,13.8-1.4,21.3-4.1c7.5-2.7,14.6-6.8,21.4-12.1c6.8-5.4,12.4-12.2,16.7-20.5
				c4.3-8.3,6.5-16.5,6.5-24.8c0-11.1-4.1-19.7-12.2-25.8c-8.1-6.1-18-9.2-29.7-9.2c-7.7,0-14.9,1.3-21.7,4
				c-6.8,2.6-13.4,6.9-19.8,12.8c-6.4,5.9-11.5,13-15.3,21.4C882.1,339.4,880.2,347.1,880.2,354.1z"/>
		</g>
		<g class="st6">
			<path class="st7" d="M1216.6,407l5.1,21.2c-10,1.4-18.9,2.1-26.7,2.1c-12.8,0-22.8-1.4-29.9-4.1c-7.1-2.7-12.1-6.4-14.9-10.8
				c-2.9-4.5-4.3-13.9-4.3-28.3v-81.3h-26v-18.6h26v-35l35.2-14.4v49.4h35.6v18.6H1181v82.6c0,6.8,0.6,11.2,1.9,13.2
				c1.2,2,3.3,3.5,6.1,4.7c2.8,1.2,6.8,1.7,12.1,1.7C1205,408,1210.2,407.6,1216.6,407z"/>
		</g>
	</g>
	<g id="XMLID_5_" class="st6">
		<path class="st9" d="M335,547.5l25.1-2.3c1.4,5.8,5.3,10.2,11.8,13.2c6.4,3.1,15.5,4.6,27,4.6c11.7,0,20.3-1.4,26-4.1
			c5.6-2.7,8.5-5.9,8.5-9.6c0-3.3-2.5-5.9-7.5-7.7c-3.5-1.3-12.1-2.9-26-4.9c-18.6-2.7-31.6-5-38.8-7c-7.2-2-12.7-4.7-16.4-8.1
			c-3.7-3.5-5.6-7.3-5.6-11.5c0-3.8,1.5-7.3,4.6-10.6c3.1-3.3,7.2-6,12.5-8.1c4-1.7,9.3-3.1,16.2-4.2c6.8-1.2,14.1-1.7,22-1.7
			c11.8,0,22.1,1,31,2.9s15.5,4.6,19.7,7.9c4.2,3.3,7.2,7.7,8.8,13.3l-24.9,1.9c-1.1-4.4-4.4-7.8-9.8-10.3
			c-5.4-2.5-13.1-3.7-22.9-3.7c-11.7,0-20,1.1-25,3.3c-5,2.2-7.5,4.8-7.5,7.7c0,1.9,1,3.6,3.1,5.1c2.1,1.6,5.3,2.8,9.7,3.9
			c2.5,0.5,10,1.8,22.5,3.7c18,2.7,30.5,5,37.6,6.7c7.1,1.7,12.7,4.3,16.7,7.6c4,3.3,6.1,7.5,6.1,12.4c0,4.8-2.5,9.4-7.4,13.7
			c-4.9,4.3-12.1,7.6-21.4,9.9c-9.3,2.3-19.9,3.5-31.6,3.5c-19.5,0-34.3-2.3-44.5-6.9C344.3,563.5,337.8,556.6,335,547.5z"/>
		<path class="st9" d="M480.3,530.3c0-15.9,7.7-27.6,23.2-35.2c12.9-6.3,28.6-9.5,47.2-9.5c20.6,0,37.5,3.9,50.5,11.6
			c13.1,7.7,19.6,18.4,19.6,32c0,11-2.9,19.7-8.7,26c-5.8,6.3-14.2,11.2-25.3,14.7c-11.1,3.5-23.1,5.2-36.2,5.2
			c-21,0-38-3.8-50.9-11.5C486.7,555.8,480.3,544.7,480.3,530.3z M506.4,530.3c0,11,4.2,19.2,12.6,24.6c8.4,5.5,18.9,8.2,31.6,8.2
			c12.6,0,23.1-2.7,31.5-8.2c8.4-5.5,12.6-13.8,12.6-25.1c0-10.6-4.2-18.6-12.6-24.1c-8.4-5.5-18.9-8.2-31.4-8.2
			c-12.7,0-23.3,2.7-31.6,8.1C510.6,511.1,506.4,519.3,506.4,530.3z"/>
		<path class="st9" d="M748.8,573.1v-12.6c-11.7,9.7-27.5,14.5-47.6,14.5c-8.8,0-17.1-1-24.8-2.9c-7.7-1.9-13.4-4.4-17.1-7.3
			c-3.7-2.9-6.3-6.5-7.8-10.8c-1-2.8-1.6-7.4-1.6-13.5v-53h25.4v47.5c0,7.6,0.5,12.7,1.6,15.3c1.6,3.8,5,6.8,10.2,9
			c5.2,2.2,11.6,3.3,19.2,3.3s14.8-1.1,21.5-3.3c6.7-2.2,11.4-5.3,14.2-9.1c2.8-3.8,4.2-9.4,4.2-16.7v-45.9h25.4v85.6H748.8z"/>
		<path class="st9" d="M801.2,547.5l25.1-2.3c1.4,5.8,5.3,10.2,11.8,13.2c6.4,3.1,15.5,4.6,27,4.6c11.7,0,20.3-1.4,26-4.1
			c5.6-2.7,8.5-5.9,8.5-9.6c0-3.3-2.5-5.9-7.5-7.7c-3.5-1.3-12.1-2.9-26-4.9c-18.6-2.7-31.6-5-38.8-7c-7.2-2-12.7-4.7-16.4-8.1
			c-3.7-3.5-5.6-7.3-5.6-11.5c0-3.8,1.5-7.3,4.6-10.6c3.1-3.3,7.2-6,12.5-8.1c4-1.7,9.3-3.1,16.2-4.2c6.8-1.2,14.1-1.7,22-1.7
			c11.8,0,22.1,1,31,2.9s15.5,4.6,19.7,7.9s7.2,7.7,8.8,13.3l-24.9,1.9c-1.1-4.4-4.4-7.8-9.8-10.3c-5.4-2.5-13.1-3.7-22.9-3.7
			c-11.7,0-20,1.1-25,3.3c-5,2.2-7.5,4.8-7.5,7.7c0,1.9,1,3.6,3.1,5.1c2.1,1.6,5.3,2.8,9.7,3.9c2.5,0.5,10,1.8,22.5,3.7
			c18,2.7,30.5,5,37.6,6.7c7.1,1.7,12.7,4.3,16.7,7.6c4,3.3,6.1,7.5,6.1,12.4c0,4.8-2.5,9.4-7.4,13.7s-12.1,7.6-21.4,9.9
			c-9.3,2.3-19.9,3.5-31.6,3.5c-19.5,0-34.3-2.3-44.5-6.9C810.6,563.5,804,556.6,801.2,547.5z"/>
		<path class="st9" d="M945.8,547.5l25.1-2.3c1.4,5.8,5.3,10.2,11.8,13.2c6.4,3.1,15.5,4.6,27,4.6c11.7,0,20.3-1.4,26-4.1
			c5.6-2.7,8.5-5.9,8.5-9.6c0-3.3-2.5-5.9-7.5-7.7c-3.5-1.3-12.1-2.9-26-4.9c-18.6-2.7-31.6-5-38.8-7c-7.2-2-12.7-4.7-16.4-8.1
			c-3.7-3.5-5.6-7.3-5.6-11.5c0-3.8,1.5-7.3,4.6-10.6c3.1-3.3,7.2-6,12.5-8.1c4-1.7,9.3-3.1,16.2-4.2c6.8-1.2,14.1-1.7,22-1.7
			c11.8,0,22.1,1,31,2.9c8.9,1.9,15.5,4.6,19.7,7.9c4.2,3.3,7.2,7.7,8.8,13.3l-24.9,1.9c-1.1-4.4-4.4-7.8-9.8-10.3
			c-5.4-2.5-13.1-3.7-22.9-3.7c-11.7,0-20,1.1-25,3.3c-5,2.2-7.5,4.8-7.5,7.7c0,1.9,1,3.6,3.1,5.1c2.1,1.6,5.3,2.8,9.7,3.9
			c2.5,0.5,10,1.8,22.5,3.7c18,2.7,30.5,5,37.6,6.7c7.1,1.7,12.7,4.3,16.7,7.6c4,3.3,6.1,7.5,6.1,12.4c0,4.8-2.5,9.4-7.4,13.7
			s-12.1,7.6-21.4,9.9c-9.3,2.3-19.9,3.5-31.6,3.5c-19.5,0-34.3-2.3-44.5-6.9C955.1,563.5,948.6,556.6,945.8,547.5z"/>
		<path class="st9" d="M1203.2,545.5l26.3,1.9c-4.1,8.8-11.8,15.6-23,20.4c-11.2,4.8-25.5,7.3-42.9,7.3c-21.9,0-39.3-3.9-52.2-11.6
			c-12.8-7.7-19.3-18.5-19.3-32.4c0-14.4,6.5-25.6,19.5-33.5c13-8,29.8-11.9,50.5-11.9c20,0,36.4,3.9,49.1,11.7
			c12.7,7.8,19.1,18.8,19.1,32.9c0,0.9,0,2.1-0.1,3.9h-111.8c0.9,9.4,5.6,16.6,14,21.6c8.4,5,18.8,7.5,31.3,7.5
			c9.3,0,17.3-1.4,23.9-4.2C1194.1,556.1,1199.3,551.6,1203.2,545.5z M1119.8,522.1h83.7c-1.1-7.2-4.3-12.6-9.6-16.2
			c-8.1-5.6-18.6-8.4-31.5-8.4c-11.7,0-21.5,2.2-29.4,6.7C1125,508.6,1120.6,514.6,1119.8,522.1z"/>
	</g>
</g>
</svg>
